<?xml version="1.0" standalone="no"?>
<!DOCTYPE svg PUBLIC "-//W3C//DTD SVG 20010904//EN"
 "http://www.w3.org/TR/2001/REC-SVG-20010904/DTD/svg10.dtd">
<svg version="1.0" xmlns="http://www.w3.org/2000/svg"
 width="512.000000pt" height="512.000000pt" viewBox="0 0 512.000000 512.000000"
 preserveAspectRatio="xMidYMid meet">

<g transform="translate(0.000000,512.000000) scale(0.100000,-0.100000)"
fill="#000000" stroke="none">
<path d="M590 5111 c-83 -26 -141 -74 -181 -151 l-24 -45 0 -2355 0 -2355 27
-51 c29 -56 68 -93 132 -127 l41 -22 1975 0 1975 0 51 27 c56 29 93 68 127
132 l22 41 0 2355 0 2355 -27 50 c-31 59 -67 94 -128 126 l-45 24 -1960 2
c-1078 1 -1971 -2 -1985 -6z m2776 -450 c130 -59 115 -250 -23 -291 -60 -18
-110 -5 -154 39 -60 60 -65 149 -12 212 50 59 117 73 189 40z m800 0 c130 -59
115 -250 -23 -291 -60 -18 -110 -5 -154 39 -60 60 -65 149 -12 212 50 59 117
73 189 40z m-2106 -141 l0 -80 -600 0 -600 0 0 80 0 80 600 0 600 0 0 -80z
m-1070 -550 c7 -17 21 -35 31 -40 11 -6 674 -10 1788 -10 l1771 0 0 -1832 c0
-1800 0 -1834 -20 -1865 -41 -68 122 -63 -2000 -63 -2122 0 -1959 -5 -2000 63
-20 31 -20 65 -20 1865 l0 1832 114 0 c99 0 117 3 140 21 14 11 26 29 26 40 0
17 8 19 79 19 78 0 79 0 91 -30z"/>
<path d="M2359 3555 c-779 -106 -1350 -787 -1316 -1570 9 -221 55 -403 152
-600 258 -528 780 -855 1365 -855 586 0 1108 327 1365 855 96 198 143 381 152
600 25 580 -277 1111 -797 1402 -259 146 -613 210 -921 168z m317 -475 c151
-19 283 -62 399 -131 76 -45 123 -53 152 -26 18 15 22 13 78 -37 49 -44 58
-57 48 -67 -28 -28 -15 -75 43 -156 147 -203 222 -467 200 -706 l-8 -77 -36
-9 c-152 -41 -402 -45 -575 -11 -60 11 -212 54 -338 95 -297 97 -383 114 -584
121 -177 7 -282 -6 -438 -51 -48 -14 -90 -25 -94 -25 -14 0 8 211 31 305 46
178 128 325 259 462 226 236 547 353 863 313z m-395 -1189 c53 -11 186 -49
295 -85 335 -109 441 -130 674 -130 85 1 184 6 219 13 34 7 65 11 67 8 4 -4
-100 -215 -119 -239 -12 -16 -23 -14 -139 27 -252 88 -503 144 -744 166 -253
23 -447 -14 -722 -136 -56 -25 -106 -45 -111 -45 -24 0 -151 292 -151 347 0 8
15 20 34 28 45 19 177 53 251 65 91 14 335 4 446 -19z m434 -426 c162 -29 508
-124 558 -152 13 -7 -39 -59 -108 -108 -215 -153 -489 -221 -751 -184 -203 28
-434 140 -562 271 l-43 45 108 46 c103 43 195 74 293 96 66 15 397 6 505 -14z"/>
</g>
</svg>
