<?xml version="1.0" encoding="UTF-8"?>
<svg version="1.1" xmlns="http://www.w3.org/2000/svg" width="392" height="394">
<path d="M0 0 C5.50719025 5.27668672 8.81860685 11.73938401 12.3125 18.4375 C13.23168874 20.17202832 14.15088468 21.90655284 15.07035828 23.64093018 C16.04745309 25.48765536 17.02031453 27.33655713 17.9921875 29.18603516 C20.01356585 33.03043115 22.05185375 36.86568962 24.09375 40.69921875 C26.949701 46.06278411 29.80149307 51.42852323 32.6484375 56.796875 C35.50530064 62.1836292 38.36441154 67.56917843 41.2265625 72.953125 C47.00658904 83.82655843 52.7861318 94.70020275 58.54296875 105.5859375 C58.92118774 106.30108017 59.29940674 107.01622284 59.68908691 107.7530365 C62.79766552 113.63094288 62.79766552 113.63094288 64.26470947 116.40542603 C70.02305859 127.29354916 75.83076586 138.1541091 81.66186523 149.00341797 C86.28647134 157.62548058 90.80505751 166.29930671 95.2980957 174.99047852 C99.25266623 182.61823549 103.3404863 190.16491905 107.48120117 197.69287109 C111.83052528 205.62630096 115.99475249 213.64995968 120.14672852 221.68798828 C123.6573213 228.4664507 127.25639976 235.18776998 130.9375 241.875 C135.5334806 250.23202729 139.98943207 258.65624638 144.375 267.125 C144.94597412 268.2269873 145.51694824 269.32897461 146.10522461 270.46435547 C147.7444032 273.63907953 149.37420209 276.81840518 151 280 C151.56493164 281.09924805 152.12986328 282.19849609 152.71191406 283.33105469 C153.25299805 284.39485352 153.79408203 285.45865234 154.3515625 286.5546875 C154.83705566 287.50585449 155.32254883 288.45702148 155.82275391 289.43701172 C159.56440949 297.58298855 158.9042774 307.27983728 156.0390625 315.62109375 C151.91208278 325.06970522 145.74145091 331.4400946 136.5 335.875 C127.33724165 339.40266197 117.90749519 339.45934033 108.6875 336.0625 C97.51197679 330.50025329 91.39971137 322.40545253 85.9375 311.4375 C85.30468216 310.20736603 84.66960859 308.97839028 84.0324707 307.75048828 C82.69151913 305.1613221 81.36085545 302.56724048 80.03710938 299.96923828 C77.01648989 294.05951198 73.87543561 288.21391645 70.74734497 282.36062622 C68.95436615 279.00146912 67.17058884 275.63743815 65.38671875 272.2734375 C65.02754868 271.59630203 64.6683786 270.91916656 64.29832458 270.22151184 C59.81602043 261.76973681 55.34123447 253.31397953 50.86657715 244.8581543 C45.39885032 234.52584104 39.92298945 224.19789416 34.4375 213.875 C33.91771072 212.89679794 33.91771072 212.89679794 33.38742065 211.89883423 C30.18121724 205.86527019 26.97415741 199.83216156 23.76660156 193.79931641 C18.84088543 184.53474172 13.91797235 175.2686879 9 166 C8.47760742 165.01596191 7.95521484 164.03192383 7.41699219 163.01806641 C3.257762 155.17710504 -0.86743641 147.32618053 -4.8125 139.375 C-12.70886774 123.46031289 -20.99086533 107.74574765 -29.54541016 92.17602539 C-34.1876418 83.70758537 -38.65386714 75.15196349 -43.09765625 66.578125 C-45.00004381 62.90973546 -46.92372794 59.25408437 -48.87109375 55.609375 C-49.32532715 54.75690186 -49.77956055 53.90442871 -50.24755859 53.02612305 C-51.09160442 51.44475164 -51.93927606 49.86530712 -52.79150391 48.28833008 C-58.47922091 37.60725642 -61.37403034 27.80623219 -58.0859375 15.609375 C-55.1755274 8.13619292 -51.01123024 1.25681836 -44 -3 C-43.34 -3 -42.68 -3 -42 -3 C-41.67 -3.66 -41.34 -4.32 -41 -5 C-26.86149918 -11.34108728 -12.22728744 -9.5216749 0 0 Z " fill="#149AF3" transform="translate(219,22)"/>
<path d="M0 0 C6.87039543 5.60444925 11.32006401 12.9067138 13.03515625 21.66015625 C13.20355712 23.69753069 13.30087077 25.74136942 13.34765625 27.78515625 C13.40373047 29.36683594 13.40373047 29.36683594 13.4609375 30.98046875 C12.35376187 40.54890405 6.80990234 49.42633919 2.53515625 57.91015625 C2.23035339 58.5179895 1.92555054 59.12582275 1.61151123 59.7520752 C-3.02076825 68.98529221 -7.85016417 78.0933157 -12.84570312 87.13598633 C-16.00248439 92.8579172 -19.00812825 98.62785053 -21.89697266 104.48876953 C-29.00291622 118.87803375 -36.57625497 133.02747792 -44.31225586 147.0859375 C-49.02373145 155.68543469 -53.52364605 164.39134792 -57.98193359 173.12402344 C-61.27507399 179.53968524 -64.75736189 185.7914491 -68.42700195 191.99902344 C-70.26450125 195.17869359 -71.84659186 198.39698404 -73.40234375 201.72265625 C-77.53606376 210.11085662 -82.22918811 218.15642748 -89.96484375 223.66015625 C-90.62484375 223.66015625 -91.28484375 223.66015625 -91.96484375 223.66015625 C-92.29484375 224.32015625 -92.62484375 224.98015625 -92.96484375 225.66015625 C-102.89756854 230.11275702 -113.65692666 230.20318631 -123.90234375 226.59765625 C-134.12873652 222.09854472 -139.4645173 215.82871395 -143.96484375 205.66015625 C-145.23261665 201.94239278 -145.25755001 198.1166466 -145.33984375 194.22265625 C-145.38882813 192.92457031 -145.4378125 191.62648438 -145.48828125 190.2890625 C-144.79192783 178.3590076 -137.16129892 166.90855637 -131.58984375 156.59765625 C-130.78896567 155.10240758 -129.9887648 153.606796 -129.18920898 152.11083984 C-127.5679134 149.08029191 -125.94238444 146.05207899 -124.31298828 143.02587891 C-122.14396319 138.99651687 -119.98772181 134.96046419 -117.8359375 130.921875 C-111.0888632 118.26737311 -104.25117965 105.66633309 -97.31835938 93.11279297 C-90.74052298 81.1934307 -84.23344608 69.24551449 -77.96484375 57.16015625 C-72.56559427 46.75185812 -67.01045384 36.43691631 -61.34472656 26.17138672 C-60.03624579 23.79009989 -58.74468023 21.40041047 -57.45703125 19.0078125 C-50.83928244 6.79901685 -45.31654036 -1.08284059 -31.96484375 -6.33984375 C-20.43589629 -9.22645427 -9.59431215 -6.88692248 0 0 Z " fill="#1399F3" transform="translate(157.96484375,131.33984375)"/>
<path d="M0 0 C7.79036006 5.74393712 12.66915039 12.97453042 15.2421875 22.3046875 C16.25787183 32.82764954 15.60758068 42.32692906 9.25390625 51.02734375 C2.63793559 58.7859691 -4.48521829 64.46447323 -14.94042969 65.52636719 C-28.91750494 66.21900497 -38.62883088 64.73920869 -49.5625 55.43359375 C-56.44270814 48.76150579 -59.68943732 39.78439251 -60.1328125 30.2421875 C-59.11571341 19.56264707 -54.86150056 9.87085862 -47.0078125 2.4296875 C-33.84289561 -8.30478319 -14.23734375 -8.75213483 0 0 Z " fill="#EF40DA" transform="translate(216.7578125,242.6953125)"/>
<path d="M0 0 C2.6177343 3.26568833 4.53631725 6.70650708 6.484375 10.40625 C6.81663086 11.03462265 7.14888672 11.6629953 7.49121094 12.31040955 C8.58056031 14.37199378 9.66523078 16.43600267 10.75 18.5 C11.90035726 20.67969416 13.05195662 22.85872889 14.20367432 25.03770447 C14.98770061 26.52111809 15.77134838 28.00473182 16.55462646 29.48854065 C20.2523745 36.48996782 23.99898349 43.46448812 27.75 50.4375 C33.01609827 60.23885153 38.17875009 70.08909906 43.2890625 79.97241211 C46.86092834 86.86093178 50.52113804 93.69527296 54.25 100.5 C54.73968262 101.39477051 55.22936523 102.28954102 55.73388672 103.21142578 C57.62447068 106.66465476 59.51539852 110.11768647 61.41064453 113.56835938 C62.7193433 115.95795499 64.01732606 118.35305379 65.3125 120.75 C65.8998291 121.81444336 65.8998291 121.81444336 66.49902344 122.90039062 C67.3945978 124.56847064 68.20673723 126.28090763 69 128 C68.67 128.66 68.34 129.32 68 130 C65 125.25 65 125.25 65 123 C63.68 123 62.36 123 61 123 C60.68546875 122.28972656 60.3709375 121.57945312 60.046875 120.84765625 C59.61890625 119.92855469 59.1909375 119.00945312 58.75 118.0625 C58.33234375 117.14597656 57.9146875 116.22945313 57.484375 115.28515625 C56.21446051 112.83550383 56.21446051 112.83550383 53.828125 112.18359375 C53.22484375 112.12300781 52.6215625 112.06242187 52 112 C52.20625 111.46375 52.4125 110.9275 52.625 110.375 C53.40622018 105.42727221 50.75703464 100.97012988 48 97 C47.01 96.34 46.02 95.68 45 95 C44.33984375 92.65234375 44.33984375 92.65234375 43.9375 89.9375 C43.57710741 87.28603505 43.57710741 87.28603505 43 85 C42.01 84.505 42.01 84.505 41 84 C40.56265392 82.11604766 40.12767176 80.23150252 39.70703125 78.34375 C38.46657246 74.23173191 36.21665292 70.65493917 34 67 C33.34 67 32.68 67 32 67 C31.73445313 66.43410156 31.46890625 65.86820312 31.1953125 65.28515625 C30.84210938 64.55167969 30.48890625 63.81820312 30.125 63.0625 C29.77695312 62.33160156 29.42890625 61.60070312 29.0703125 60.84765625 C28.1315023 58.83667541 28.1315023 58.83667541 26 58 C25.11364705 55.44730352 24.46440296 52.86380263 23.78125 50.25 C23.2328113 47.82546793 23.2328113 47.82546793 21 47 C21 45.68 21 44.36 21 43 C20.34 43 19.68 43 19 43 C15.87616707 38.00186731 14.2143834 33.76832116 13 28 C12.34 28 11.68 28 11 28 C10.71125 26.865625 10.4225 25.73125 10.125 24.5625 C9.75375 23.386875 9.3825 22.21125 9 21 C8.34 20.67 7.68 20.34 7 20 C6.25827135 18.38168295 5.52736566 16.75716587 4.86328125 15.10546875 C3.61280907 12.05567461 2.18175316 9.09111247 0.76953125 6.11328125 C0 4 0 4 0 0 Z " fill="#9AD9F5" transform="translate(271,117)"/>
<path d="M0 0 C0.495 0.99 0.495 0.99 1 2 C0.29760742 3.79882813 0.29760742 3.79882813 -0.89453125 6.03125 C-1.34610596 6.88678467 -1.79768066 7.74231934 -2.26293945 8.6237793 C-3.02997192 10.04750854 -3.02997192 10.04750854 -3.8125 11.5 C-4.34512451 12.50393799 -4.87774902 13.50787598 -5.42651367 14.54223633 C-6.62097019 16.79240021 -7.81885989 19.04074383 -9.01953125 21.28759766 C-11.12016154 25.21983983 -13.20149269 29.1621571 -15.28125 33.10546875 C-39.30799567 78.63979899 -39.30799567 78.63979899 -51.35449219 100.31176758 C-53.94668415 104.99920025 -56.36751202 109.73564353 -58.6875 114.5625 C-61.75359338 120.79073305 -65.22269241 126.91112888 -70 132 C-70.99 132 -71.98 132 -73 132 C-72.52949219 131.46632813 -72.05898437 130.93265625 -71.57421875 130.3828125 C-66.96609016 124.86832321 -64.53734727 120.01323185 -63 113 C-62.34 113 -61.68 113 -61 113 C-60.7525 112.195625 -60.505 111.39125 -60.25 110.5625 C-58.73921353 106.25675857 -56.89811144 102.14635993 -55 98 C-54.34 98 -53.68 98 -53 98 C-52.67 96.35 -52.34 94.7 -52 93 C-50.515 92.505 -50.515 92.505 -49 92 C-47.21720787 89.20940078 -47.21720787 89.20940078 -45.53125 85.734375 C-45.20966919 85.10396301 -44.88808838 84.47355103 -44.5567627 83.82403564 C-43.5285227 81.80392648 -42.51390778 79.77733481 -41.5 77.75 C-40.48337021 75.73843239 -39.46398654 73.7282911 -38.4432373 71.71881104 C-37.80912285 70.46817656 -37.1778641 69.21608866 -36.54992676 67.96234131 C-35.23194292 65.34365057 -33.8744109 62.79245063 -32.35620117 60.28344727 C-30.62345232 57.36600351 -29.764876 54.43871461 -28.8125 51.1875 C-28.46832031 50.02605469 -28.12414062 48.86460937 -27.76953125 47.66796875 C-27.51558594 46.78753906 -27.26164062 45.90710938 -27 45 C-26.34 45 -25.68 45 -25 45 C-24.01 42.03 -23.02 39.06 -22 36 C-21.34 36 -20.68 36 -20 36 C-19.7525 34.96875 -19.505 33.9375 -19.25 32.875 C-18.46100594 30.06279974 -17.70244455 28.56296544 -16 26.0625 C-13.57231926 22.34511387 -12.89463992 19.32409297 -12 15 C-11.34 15 -10.68 15 -10 15 C-8.68 12.69 -7.36 10.38 -6 8 C-5.34 8 -4.68 8 -4 8 C-4 6.02 -4 4.04 -4 2 C-3.01 2.495 -3.01 2.495 -2 3 C-1.34 2.01 -0.68 1.02 0 0 Z " fill="#96D6F3" transform="translate(143,219)"/>
<path d="M0 0 C2.79653053 2.46569677 4.2554663 5.11519153 5.93359375 8.42578125 C6.4944165 9.52220947 7.05523926 10.6186377 7.63305664 11.74829102 C8.22852295 12.92447998 8.82398926 14.10066895 9.4375 15.3125 C10.69156065 17.76755617 11.9506189 20.22002638 13.2109375 22.671875 C13.52791092 23.28930069 13.84488434 23.90672638 14.17146301 24.54286194 C17.65995677 31.31777359 21.31463049 37.99973196 25.00366211 44.66723633 C34 60.97499528 34 60.97499528 34 64 C34.61278809 64.08918701 35.22557617 64.17837402 35.85693359 64.27026367 C38.60540573 65.20614693 39.00081055 66.11892455 40.2890625 68.67578125 C40.67320312 69.42150391 41.05734375 70.16722656 41.453125 70.93554688 C42.03320312 72.11213867 42.03320312 72.11213867 42.625 73.3125 C43.01945312 74.08529297 43.41390625 74.85808594 43.8203125 75.65429688 C45.26086524 78.48430167 46.6902412 81.31175705 47.99365234 84.20776367 C48.86083976 86.21346865 48.86083976 86.21346865 51.125 86.75 C51.74375 86.8325 52.3625 86.915 53 87 C53.05607422 87.87011719 53.05607422 87.87011719 53.11328125 88.7578125 C53.54570741 93.8960527 54.51817345 97.41816637 57 102 C57.47957595 103.43055325 57.93619161 104.86892011 58.375 106.3125 C59.7290907 110.61501399 61.72821884 114.23662676 64.109375 118.0546875 C65 120 65 120 64 123 C63.6690332 122.35788574 63.33806641 121.71577148 62.99707031 121.05419922 C57.10762411 109.64213054 51.1904864 98.25221722 45 87 C40.14573158 78.17536993 35.47770004 69.26443119 30.85546875 60.31640625 C27.32266965 53.49532159 23.70172976 46.73075132 20 40 C15.51702369 31.8366993 11.12914047 23.62754088 6.8125 15.375 C6.24724609 14.30121094 5.68199219 13.22742188 5.09960938 12.12109375 C4.57818359 11.11949219 4.05675781 10.11789063 3.51953125 9.0859375 C3.05651611 8.1995459 2.59350098 7.3131543 2.11645508 6.39990234 C1.11698168 4.25146073 0.47115528 2.31379891 0 0 Z " fill="#9CD9F3" transform="translate(226,182)"/>
<path d="M0 0 C2.51397448 2.24821147 3.80123321 4.34697359 5.125 7.4375 C5.62386719 8.58025391 5.62386719 8.58025391 6.1328125 9.74609375 C9.63431268 18.84683971 8.87245799 29.13410933 5 38 C-0.05638947 47.45391606 -6.61782317 53.22536192 -16.625 57.078125 C-25.95268508 59.62596491 -35.36573986 59.03056096 -44.04199219 54.70019531 C-54.25032852 48.83267681 -59.63436422 40.38080046 -64.75 30.125 C-65.37433962 28.90914652 -66.00063714 27.6942964 -66.62890625 26.48046875 C-67.84958834 24.11907479 -69.05614776 21.75219019 -70.25585938 19.37988281 C-72.40203151 15.22092326 -74.69812598 11.15644509 -77.04003906 7.10498047 C-77.35682617 6.41033691 -77.67361328 5.71569336 -78 5 C-77.67 4.34 -77.34 3.68 -77 3 C-70.95761571 13.61710934 -65.09112665 24.31996651 -59.34301758 35.09960938 C-58.80829834 36.09541016 -58.2735791 37.09121094 -57.72265625 38.1171875 C-57.24578369 39.01034668 -56.76891113 39.90350586 -56.27758789 40.82373047 C-55.05875025 43.10912441 -55.05875025 43.10912441 -53 45 C-50.42938689 45.64767793 -50.42938689 45.64767793 -48 46 C-47.67 46.99 -47.34 47.98 -47 49 C-43.06386006 51.37999159 -39.55105375 52.45820789 -35 53 C-35 53.66 -35 54.32 -35 55 C-20.7536289 55.80035447 -20.7536289 55.80035447 -8 50 C-7.34644531 49.56558594 -6.69289063 49.13117188 -6.01953125 48.68359375 C-0.0993678 44.25293837 2.70672093 37.87983722 5 31 C5.57186676 22.21575162 5.95704942 14.04922194 1.97265625 5.98046875 C0.99843938 3.99682236 0.46005656 2.15500177 0 0 Z " fill="#A1DBF3" transform="translate(369,302)"/>
<path d="M0 0 C1.22560622 3.73295329 0.96157974 7.16628074 0.8125 11.0625 C0.69176933 17.73368522 1.32099728 24.25439699 5 30 C7.05544672 30.85407059 7.05544672 30.85407059 9 31 C9.33 33.31 9.66 35.62 10 38 C10.66 38 11.32 38 12 38 C12 38.66 12 39.32 12 40 C13.07314453 40.42925781 13.07314453 40.42925781 14.16796875 40.8671875 C18.4453125 42.578125 22.72265625 44.2890625 27 46 C27 46.66 27 47.32 27 48 C35.82554045 47.26636326 43.42744223 46.59026781 51.1796875 41.92578125 C51.78039062 41.62027344 52.38109375 41.31476563 53 41 C53.99 41.495 53.99 41.495 55 42 C54.0409375 42.433125 54.0409375 42.433125 53.0625 42.875 C50.84793921 43.82823451 50.84793921 43.82823451 50 46 C40.06727521 50.45260077 29.30791709 50.54303006 19.0625 46.9375 C8.83610723 42.43838847 3.50032645 36.1685577 -1 26 C-2.35683533 22.15018409 -2.1837973 18.16094231 -2.1875 14.125 C-2.20586914 13.08279297 -2.20586914 13.08279297 -2.22460938 12.01953125 C-2.23702874 7.62307607 -1.61908407 4.08290765 0 0 Z " fill="#92D1F1" transform="translate(15,311)"/>
<path d="M0 0 C6.09658814 2.50183962 9.20214396 8.84859073 11.875 14.625 C14.79681838 23.39045515 14.01586371 33.99551395 10.45703125 42.43359375 C6.42175662 49.54130268 -0.13149615 57.06266259 -8 60 C-8.99 59.67 -9.98 59.34 -11 59 C-10.071875 58.62875 -9.14375 58.2575 -8.1875 57.875 C-4.78122776 56.26535124 -4.78122776 56.26535124 -3.5 52.9375 C-2 50 -2 50 1.1875 48.625 C2.115625 48.41875 3.04375 48.2125 4 48 C3.505 46.515 3.505 46.515 3 45 C3.33 44.34 3.66 43.68 4 43 C4.66 43 5.32 43 6 43 C6.33 41.35 6.66 39.7 7 38 C7.66 38 8.32 38 9 38 C9.65464958 25.73138201 10.00606911 16.51762687 3 6 C0 1.13793103 0 1.13793103 0 0 Z " fill="#EC9CE5" transform="translate(219,246)"/>
<path d="M0 0 C0.33 0 0.66 0 1 0 C1.44814841 4.59352124 0.5969167 7.10936453 -1.84375 10.98828125 C-4.02259055 14.77916937 -5.45616859 18.91870102 -7 23 C-7.66 23 -8.32 23 -9 23 C-9.16435547 23.92232422 -9.16435547 23.92232422 -9.33203125 24.86328125 C-9.56986328 26.07564453 -9.56986328 26.07564453 -9.8125 27.3125 C-9.96332031 28.11300781 -10.11414063 28.91351563 -10.26953125 29.73828125 C-11.08794777 32.27230888 -12.08859809 33.20900136 -14 35 C-14.33 35.99 -14.66 36.98 -15 38 C-15.66 38 -16.32 38 -17 38 C-17.66 40.31 -18.32 42.62 -19 45 C-21.475 45.495 -21.475 45.495 -24 46 C-24.28875 46.969375 -24.5775 47.93875 -24.875 48.9375 C-26 52 -26 52 -28 53 C-26.52125739 47.77129686 -24.12473402 43.58694989 -21.3125 39 C-17.49118438 32.64530635 -14.049752 26.25071644 -10.8046875 19.58203125 C-7.50048841 12.89982793 -3.70339299 6.46624173 0 0 Z " fill="#2696E6" transform="translate(79,191)"/>
<path d="M0 0 C2.7398311 3.39411123 4.75024629 7.08537115 6.765625 10.93359375 C7.12211121 11.60737564 7.47859741 12.28115753 7.84588623 12.97535706 C8.98383183 15.12771168 10.11706359 17.28250519 11.25 19.4375 C12.36569431 21.55227651 13.4823612 23.66653456 14.59973145 25.78042603 C15.33377519 27.17126393 16.06580033 28.56316912 16.79577637 29.95614624 C18.52014907 33.24003756 20.26970464 36.50111266 22.10742188 39.72314453 C22.74744141 40.8573584 23.38746094 41.99157227 24.046875 43.16015625 C24.61760742 44.14765869 25.18833984 45.13516113 25.77636719 46.15258789 C27.13893701 49.32330853 27.23922956 51.58464995 27 55 C27.66 55 28.32 55 29 55 C30.65 58.63 32.3 62.26 34 66 C33.01 66.495 33.01 66.495 32 67 C31.73445313 66.43410156 31.46890625 65.86820312 31.1953125 65.28515625 C30.84210938 64.55167969 30.48890625 63.81820312 30.125 63.0625 C29.77695312 62.33160156 29.42890625 61.60070312 29.0703125 60.84765625 C28.1315023 58.83667541 28.1315023 58.83667541 26 58 C25.11364705 55.44730352 24.46440296 52.86380263 23.78125 50.25 C23.2328113 47.82546793 23.2328113 47.82546793 21 47 C21 45.68 21 44.36 21 43 C20.34 43 19.68 43 19 43 C15.87616707 38.00186731 14.2143834 33.76832116 13 28 C12.34 28 11.68 28 11 28 C10.71125 26.865625 10.4225 25.73125 10.125 24.5625 C9.75375 23.386875 9.3825 22.21125 9 21 C8.34 20.67 7.68 20.34 7 20 C6.25827135 18.38168295 5.52736566 16.75716587 4.86328125 15.10546875 C3.61280907 12.05567461 2.18175316 9.09111247 0.76953125 6.11328125 C0 4 0 4 0 0 Z " fill="#87CAED" transform="translate(271,117)"/>
<path d="M0 0 C0.33 0.66 0.66 1.32 1 2 C0.21826172 3.95751953 0.21826172 3.95751953 -1.0703125 6.3828125 C-1.54863525 7.29192383 -2.02695801 8.20103516 -2.51977539 9.13769531 C-3.31436157 10.61641113 -3.31436157 10.61641113 -4.125 12.125 C-4.66181396 13.1365918 -5.19862793 14.14818359 -5.75170898 15.19042969 C-6.89835148 17.34620373 -8.04912808 19.49978297 -9.20361328 21.65136719 C-11.00823462 25.0153501 -12.79950476 28.38621094 -14.58984375 31.7578125 C-15.74644344 33.92238416 -16.90396861 36.08646161 -18.0625 38.25 C-18.60986816 39.27883301 -19.15723633 40.30766602 -19.72119141 41.36767578 C-20.495354 42.80216064 -20.495354 42.80216064 -21.28515625 44.265625 C-21.73769775 45.10899414 -22.19023926 45.95236328 -22.65649414 46.82128906 C-23.93487522 48.89438969 -25.2302641 50.34732365 -27 52 C-28.01800576 53.31963709 -29.02248365 54.65009646 -30 56 C-29.44894091 52.0507432 -28.61064629 48.65079826 -27 45 C-26.34 45 -25.68 45 -25 45 C-24.01 42.03 -23.02 39.06 -22 36 C-21.34 36 -20.68 36 -20 36 C-19.62875 34.453125 -19.62875 34.453125 -19.25 32.875 C-18.46100594 30.06279974 -17.70244455 28.56296544 -16 26.0625 C-13.57231926 22.34511387 -12.89463992 19.32409297 -12 15 C-11.34 15 -10.68 15 -10 15 C-8.68 12.69 -7.36 10.38 -6 8 C-5.34 8 -4.68 8 -4 8 C-4 6.02 -4 4.04 -4 2 C-3.34 2.33 -2.68 2.66 -2 3 C-1.34 2.01 -0.68 1.02 0 0 Z " fill="#63B8E6" transform="translate(143,219)"/>
<path d="M0 0 C0.99 0 1.98 0 3 0 C3.33 6.93 3.66 13.86 4 21 C5.32 21.33 6.64 21.66 8 22 C8 23.65 8 25.3 8 27 C8.66 27.33 9.32 27.66 10 28 C11.74839516 30.65756064 12.99127482 32.97382445 14 36 C15.65 36 17.3 36 19 36 C19.66 37.65 20.32 39.3 21 41 C13.6713227 39.35104761 8.34503771 34.33603411 4.1875 28.25 C-0.78491675 19.58186809 -2.42790071 9.71160284 0 0 Z " fill="#E688DD" transform="translate(158,264)"/>
<path d="M0 0 C2.52659648 3.17065896 4.4274163 6.4811538 6.328125 10.05859375 C6.64021912 10.64359146 6.95231323 11.22858917 7.27386475 11.83131409 C8.26907455 13.69837838 9.2596586 15.56784962 10.25 17.4375 C11.22319485 19.26703829 12.1973335 21.09607094 13.17175293 22.92495728 C13.81624573 24.13637556 14.45923842 25.34859315 15.10070801 26.56161499 C16.7298329 29.63862645 18.38179142 32.69930598 20.08007812 35.73876953 C20.41054138 36.33528824 20.74100464 36.93180695 21.08148193 37.54640198 C21.99498756 39.1917026 22.91668537 40.83244699 23.83886719 42.47290039 C24.22204102 43.30684326 24.60521484 44.14078613 25 45 C24.67 45.66 24.34 46.32 24 47 C22.0625 46.4375 22.0625 46.4375 20 45 C19.25 41.375 19.25 41.375 19 38 C17.68 37.67 16.36 37.34 15 37 C15 35.35 15 33.7 15 32 C14.01 31.67 13.02 31.34 12 31 C11.896875 30.236875 11.79375 29.47375 11.6875 28.6875 C11.25198341 25.98864879 11.25198341 25.98864879 9.51953125 24.6015625 C7.65324373 22.63452424 7.43938679 21.33755159 7 18.6875 C6.23683126 14.72937059 4.99422756 11.53522158 3 8 C2.34 8 1.68 8 1 8 C0.67 5.36 0.34 2.72 0 0 Z " fill="#7DC8ED" transform="translate(340,247)"/>
<path d="M0 0 C-1.093125 -0.020625 -2.18625 -0.04125 -3.3125 -0.0625 C-6.94384191 -0.18544452 -6.94384191 -0.18544452 -10 1 C-10.33 -0.32 -10.66 -1.64 -11 -3 C-18.36975162 -2.67861234 -24.24660104 -2.12657359 -31 1 C-34.64444344 1.81540072 -38.30948955 2.43274252 -42 3 C-37.99373669 -1.87719012 -32.45699822 -3.93630824 -26.5625 -5.75 C-17.00777453 -6.68216834 -7.72931144 -6.29991823 0 0 Z " fill="#58AEE4" transform="translate(155,130)"/>
<path d="M0 0 C4.29191224 4.29191224 3.30924011 10.70609904 3.31469727 16.42944336 C3.14907597 25.63465553 0.40552424 32.42592128 -5.93359375 39.17578125 C-10.30575184 43.03551249 -16.04924971 47.29916217 -22 48 C-22.66 47.34 -23.32 46.68 -24 46 C-23.36191406 45.80664062 -22.72382813 45.61328125 -22.06640625 45.4140625 C-20.82697266 45.02347656 -20.82697266 45.02347656 -19.5625 44.625 C-18.73878906 44.36976563 -17.91507812 44.11453125 -17.06640625 43.8515625 C-14.82201984 43.19117773 -14.82201984 43.19117773 -14 41 C-13.01 41 -12.02 41 -11 41 C-11 40.34 -11 39.68 -11 39 C-10.21625 38.566875 -9.4325 38.13375 -8.625 37.6875 C-5.53316417 35.69989125 -5.23376397 34.34878792 -4 31 C-3.01 30.67 -2.02 30.34 -1 30 C-1 27.36 -1 24.72 -1 22 C-0.34 22 0.32 22 1 22 C0.67 14.74 0.34 7.48 0 0 Z " fill="#3097DB" transform="translate(372,310)"/>
<path d="M0 0 C1.01351195 3.32558608 1.07181724 6.28481837 1 9.75 C0.95227877 14.6175652 1.26050886 19.19330762 2 24 C2.99 24.33 3.98 24.66 5 25 C7.76159346 28.63367561 7.14498705 32.65038836 7 37 C7.66 37.33 8.32 37.66 9 38 C8.34 38.99 7.68 39.98 7 41 C5.68543451 38.23012967 4.3732713 35.45916513 3.0625 32.6875 C2.68931641 31.90181641 2.31613281 31.11613281 1.93164062 30.30664062 C1.57392578 29.54931641 1.21621094 28.79199219 0.84765625 28.01171875 C0.51773682 27.31522217 0.18781738 26.61872559 -0.15209961 25.90112305 C-2.0262706 21.69894353 -2.16487093 18.26309695 -2.1875 13.6875 C-2.20167969 12.39199219 -2.21585938 11.09648438 -2.23046875 9.76171875 C-2.00819391 6.1337412 -1.32059222 3.3667272 0 0 Z " fill="#5EB2E6" transform="translate(162,35)"/>
<path d="M0 0 C-4.75 4 -4.75 4 -7 4 C-7 4.66 -7 5.32 -7 6 C-6.34 6.33 -5.68 6.66 -5 7 C-6.65 8.32 -8.3 9.64 -10 11 C-10.33 10.34 -10.66 9.68 -11 9 C-11.721875 9.721875 -12.44375 10.44375 -13.1875 11.1875 C-14.115625 12.115625 -15.04375 13.04375 -16 14 C-16.886875 14.928125 -17.77375 15.85625 -18.6875 16.8125 C-21 19 -21 19 -23 19 C-21.41407497 12.49770736 -17.71606034 8.33882974 -12.75 4.0625 C-11 3 -11 3 -9 3 C-8.67 2.34 -8.34 1.68 -8 1 C-3.6 -1.2 -3.6 -1.2 0 0 Z " fill="#1B97E8" transform="translate(186,16)"/>
<path d="M0 0 C8.62393492 3.63211082 12.85433306 15.19247028 17 23 C17.7580896 24.41696167 17.7580896 24.41696167 18.53149414 25.86254883 C18.99547607 26.75353271 19.45945801 27.6445166 19.9375 28.5625 C20.56978516 29.77099609 20.56978516 29.77099609 21.21484375 31.00390625 C21.60349609 31.99197266 21.60349609 31.99197266 22 33 C21.67 33.66 21.34 34.32 21 35 C20.67 34.01 20.34 33.02 20 32 C19.01 32 18.02 32 17 32 C16.17886823 30.60922699 15.36847505 29.21211107 14.5625 27.8125 C14.11003906 27.03519531 13.65757812 26.25789063 13.19140625 25.45703125 C11.97534034 22.94914451 11.53784549 20.71680925 11 18 C10.38125 17.4225 9.7625 16.845 9.125 16.25 C6.46363048 13.43207934 5.88509017 10.85180741 4.79296875 7.1953125 C3.74341494 4.28965123 2.09607642 2.24063341 0 0 Z " fill="#91D3F0" transform="translate(217,22)"/>
<path d="M0 0 C0.99 0.33 1.98 0.66 3 1 C3 1.99 3 2.98 3 4 C3.66 4 4.32 4 5 4 C5 5.65 5 7.3 5 9 C5.99 9 6.98 9 8 9 C8.25523437 9.84046875 8.51046875 10.6809375 8.7734375 11.546875 C10.10148815 15.28571823 11.79586567 18.74044145 13.625 22.25 C17 28.73214286 17 28.73214286 17 31 C17.99 31.33 18.98 31.66 20 32 C21.1328125 34.328125 21.1328125 34.328125 22.125 37.25 C22.45757812 38.20390625 22.79015625 39.1578125 23.1328125 40.140625 C23.92494122 42.7525089 24.51989376 45.31532432 25 48 C22.40950139 44.7765621 20.55238727 41.40074839 18.671875 37.72265625 C18.35978088 37.11546249 18.04768677 36.50826874 17.72613525 35.88267517 C16.73057491 33.94439539 15.74002323 32.00361296 14.75 30.0625 C13.45497188 27.53160255 12.15749089 25.00197105 10.859375 22.47265625 C10.54182251 21.85202301 10.22427002 21.23138977 9.89709473 20.59194946 C8.28460465 17.45146281 6.64611305 14.32896646 4.95507812 11.22998047 C4.62912659 10.63253525 4.30317505 10.03509003 3.96734619 9.41954041 C3.06876375 7.78051923 2.16396896 6.14490835 1.25878906 4.50952148 C0 2 0 2 0 0 Z " fill="#3E9ED9" transform="translate(236,198)"/>
<path d="M0 0 C3.76528383 1.45629298 4.9889925 3.18107388 6.83203125 6.71875 C7.31994141 7.65074219 7.80785156 8.58273438 8.31054688 9.54296875 C8.80619141 10.51878906 9.30183594 11.49460938 9.8125 12.5 C10.32748047 13.47582031 10.84246094 14.45164063 11.37304688 15.45703125 C14.14916549 20.83088335 14.14916549 20.83088335 15 23 C14.67 23.66 14.34 24.32 14 25 C11 20.25 11 20.25 11 18 C9.68 18 8.36 18 7 18 C6.68546875 17.28972656 6.3709375 16.57945312 6.046875 15.84765625 C5.40492188 14.46900391 5.40492188 14.46900391 4.75 13.0625 C4.33234375 12.14597656 3.9146875 11.22945312 3.484375 10.28515625 C2.21446051 7.83550383 2.21446051 7.83550383 -0.171875 7.18359375 C-0.77515625 7.12300781 -1.3784375 7.06242188 -2 7 C-1.125 1.125 -1.125 1.125 0 0 Z " fill="#67BCEC" transform="translate(325,222)"/>
<path d="M0 0 C1.18414294 3.55242882 0.69535532 4.69830562 -0.4375 8.1875 C-0.72496094 9.08855469 -1.01242188 9.98960937 -1.30859375 10.91796875 C-1.53675781 11.60503906 -1.76492187 12.29210937 -2 13 C-2.66 13 -3.32 13 -4 13 C-4.12375 13.721875 -4.2475 14.44375 -4.375 15.1875 C-4.9904931 17.95721894 -5.88444374 20.3970354 -7 23 C-7.66 23 -8.32 23 -9 23 C-9.33 23.99 -9.66 24.98 -10 26 C-10.66 26.33 -11.32 26.66 -12 27 C-12.72159424 28.64363134 -13.39351421 30.31050386 -14 32 C-14.66 32 -15.32 32 -16 32 C-14.65992042 27.61167072 -12.93504666 23.75344931 -10.7421875 19.7265625 C-10.11699219 18.57285156 -9.49179687 17.41914063 -8.84765625 16.23046875 C-8.19020906 15.02858845 -7.53265566 13.82676624 -6.875 12.625 C-6.20919301 11.39997993 -5.54382415 10.17472163 -4.87890625 8.94921875 C-3.25689429 5.96377644 -1.6304687 2.98082961 0 0 Z " fill="#83C8EB" transform="translate(50,244)"/>
<path d="M0 0 C2.64465038 3.1254959 3.84414715 6.08788267 5 10 C6.32 10 7.64 10 9 10 C9.66 11.32 10.32 12.64 11 14 C11.66 14 12.32 14 13 14 C13.144375 15.051875 13.28875 16.10375 13.4375 17.1875 C13.87526966 20.15460549 14.37804866 23.06794366 15 26 C15.99 26 16.98 26 18 26 C18 27.98 18 29.96 18 32 C15.18118279 28.86798088 13.30080181 25.711936 11.5 21.9375 C10.15500125 19.14498735 9.1986065 17.1986065 7 15 C3.67193083 11.67193083 1.76529333 7.33365042 0 3 C0 2.01 0 1.02 0 0 Z " fill="#5BB2E8" transform="translate(218,166)"/>
<path d="M0 0 C0.6875 1.8125 0.6875 1.8125 1 4 C-0.25 5.5 -0.25 5.5 -2 7 C-4.66171471 9.76029674 -4.98981883 10.79637663 -5.1875 14.75 C-5.125625 15.8225 -5.06375 16.895 -5 18 C-6.32 17.67 -7.64 17.34 -9 17 C-9 19.31 -9 21.62 -9 24 C-10.98 24.66 -12.96 25.32 -15 26 C-13.60744187 21.31529163 -11.628215 17.21034828 -9.1875 13 C-8.85685547 12.40960938 -8.52621094 11.81921875 -8.18554688 11.2109375 C-5.82236481 7.09237835 -3.12380904 3.57629796 0 0 Z " fill="#52AFE7" transform="translate(112,133)"/>
<path d="M0 0 C0.33 0 0.66 0 1 0 C1.44835295 4.59561772 0.6081316 7.12464317 -1.86328125 10.9921875 C-3.64066731 14.13162542 -4.66564904 17.53795192 -5.77734375 20.9609375 C-7 23 -7 23 -9.62890625 23.7890625 C-10.80259766 23.89347656 -10.80259766 23.89347656 -12 24 C-10.42195846 18.39523177 -7.73583615 13.64949374 -4.875 8.625 C-4.17310547 7.37783203 -4.17310547 7.37783203 -3.45703125 6.10546875 C-2.30929451 4.06765046 -1.15686718 2.03264431 0 0 Z " fill="#41A6E6" transform="translate(79,191)"/>
<path d="M0 0 C0.33 0.66 0.66 1.32 1 2 C0.07543945 4.22729492 0.07543945 4.22729492 -1.38671875 6.98046875 C-1.91330078 7.98013672 -2.43988281 8.97980469 -2.98242188 10.00976562 C-3.82643555 11.58274414 -3.82643555 11.58274414 -4.6875 13.1875 C-5.23083984 14.21681641 -5.77417969 15.24613281 -6.33398438 16.30664062 C-9.13374041 21.59130709 -11.99435168 26.82969985 -15 32 C-15.33 31.34 -15.66 30.68 -16 30 C-15.22265625 28.30078125 -15.22265625 28.30078125 -14.0625 26.3125 C-11.90490765 22.25681953 -11.62160115 19.54078618 -12 15 C-11.34 15 -10.68 15 -10 15 C-8.68 12.69 -7.36 10.38 -6 8 C-5.34 8 -4.68 8 -4 8 C-4 6.02 -4 4.04 -4 2 C-3.34 2.33 -2.68 2.66 -2 3 C-1.34 2.01 -0.68 1.02 0 0 Z " fill="#87CDEF" transform="translate(143,219)"/>
<path d="M0 0 C0.66 0 1.32 0 2 0 C2 0.66 2 1.32 2 2 C2.66 2 3.32 2 4 2 C4 2.66 4 3.32 4 4 C4.99 4 5.98 4 7 4 C7.28875 4.969375 7.5775 5.93875 7.875 6.9375 C8.64214682 10.10664203 8.64214682 10.10664203 11 11 C11.6328125 13.94140625 11.6328125 13.94140625 12.125 17.5625 C12.29257813 18.76003906 12.46015625 19.95757812 12.6328125 21.19140625 C12.75398437 22.11824219 12.87515625 23.04507813 13 24 C10.86774488 21.2763334 9.12558713 18.54989546 7.51953125 15.48828125 C7.07802734 14.64845703 6.63652344 13.80863281 6.18164062 12.94335938 C5.72982422 12.07517578 5.27800781 11.20699219 4.8125 10.3125 C4.34908203 9.43271484 3.88566406 8.55292969 3.40820312 7.64648438 C0 1.13626427 0 1.13626427 0 0 Z " fill="#42AAE6" transform="translate(197,127)"/>
<path d="M0 0 C-1.65 0.33 -3.3 0.66 -5 1 C-5 1.99 -5 2.98 -5 4 C-6.093125 4.598125 -7.18625 5.19625 -8.3125 5.8125 C-12.09127331 7.98700536 -14.31544742 9.74994746 -16.4375 13.625 C-18 16 -18 16 -20.1875 16.8125 C-20.785625 16.874375 -21.38375 16.93625 -22 17 C-19.50382004 8.76260612 -13.43770287 4.28594942 -6.3671875 -0.03125 C-3.70363887 -1.1212831 -2.63901866 -1.02155561 0 0 Z " fill="#E694DF" transform="translate(184,240)"/>
<path d="M0 0 C0.99 0 1.98 0 3 0 C1.30916337 6.05034312 -1.6828924 11.36414871 -4.625 16.875 C-5.3984375 18.33679688 -5.3984375 18.33679688 -6.1875 19.828125 C-7.45428286 22.22093706 -8.72521318 24.61144536 -10 27 C-11 24 -11 24 -11 20 C-10.34 20 -9.68 20 -9 20 C-8.938125 18.741875 -8.87625 17.48375 -8.8125 16.1875 C-8.54296875 13.9453125 -8.54296875 13.9453125 -8 12 C-6.33720673 10.9935725 -4.67016516 9.99414593 -3 9 C-1.66425877 6.0875603 -0.79894404 3.09834397 0 0 Z " fill="#5DB5E6" transform="translate(155,192)"/>
<path d="M0 0 C0.66 0 1.32 0 2 0 C2 0.66 2 1.32 2 2 C2.928125 2.37125 2.928125 2.37125 3.875 2.75 C6.4378364 4.25755082 7.04314447 5.20917138 8 8 C7.95875 8.763125 7.9175 9.52625 7.875 10.3125 C8.0926381 14.99171912 10.7156407 18.7156407 14 22 C14.125 24.625 14.125 24.625 14 27 C7.71487705 19.04539127 2.69367467 9.76457067 0 0 Z " fill="#339CDF" transform="translate(288,296)"/>
<path d="M0 0 C0.99 0.33 1.98 0.66 3 1 C2.67 1.66 2.34 2.32 2 3 C2.66 3 3.32 3 4 3 C7.85341397 7.62169588 9.62834433 12.05350921 10 18 C10.66 18 11.32 18 12 18 C15.10096154 23.45769231 15.10096154 23.45769231 14.58984375 26.203125 C14.39519531 26.79609375 14.20054687 27.3890625 14 28 C12.00086459 24.3366907 10.00718702 20.67048184 8.01855469 17.00146484 C7.34101904 15.75325319 6.66198825 14.50585192 5.98144531 13.25927734 C5.00453499 11.46922446 4.03300652 9.67634352 3.0625 7.8828125 C2.47597656 6.80402832 1.88945312 5.72524414 1.28515625 4.61376953 C0 2 0 2 0 0 Z " fill="#4AA5E1" transform="translate(170,76)"/>
<path d="M0 0 C0.99 0.33 1.98 0.66 3 1 C3 2.65 3 4.3 3 6 C3.66 6.33 4.32 6.66 5 7 C6.74839516 9.65756064 7.99127482 11.97382445 9 15 C10.65 15 12.3 15 14 15 C14.66 16.65 15.32 18.3 16 20 C10.09825857 18.67210818 6.05538832 15.34575025 2 11 C1 8 1 8 1 4 C0.7018576 2.65835921 0.37756808 1.32148827 0 0 Z " fill="#E96FDD" transform="translate(163,285)"/>
<path d="M0 0 C4.20462706 4.20462706 4.17448983 9.77251099 4.3125 15.4375 C4.24204625 20.98413195 3.35208355 25.00182246 1 30 C0.06576355 26.98968256 -0.04449911 26.13349732 1 23 C1.44810137 15.31637945 0.74696775 7.64308071 0 0 Z " fill="#65B5E4" transform="translate(167,144)"/>
<path d="M0 0 C-3.07556958 0.97918775 -3.68592423 1.1498998 -6.75 -0.3125 C-7.4925 -0.869375 -8.235 -1.42625 -9 -2 C-9 -2.66 -9 -3.32 -9 -4 C-15.95708517 -5.15951419 -22.96744152 -5.54156692 -30 -6 C-30 -6.33 -30 -6.66 -30 -7 C-18.97270277 -9.56448773 -9.0090452 -6.46698956 0 0 Z " fill="#73BFE8" transform="translate(217,21)"/>
<path d="M0 0 C0.99 0 1.98 0 3 0 C1.69042205 3.37913187 0.24600633 6.62652588 -1.3828125 9.86328125 C-1.82753906 10.74951172 -2.27226563 11.63574219 -2.73046875 12.54882812 C-3.19066406 13.46083984 -3.65085937 14.37285156 -4.125 15.3125 C-4.59292969 16.24384766 -5.06085938 17.17519531 -5.54296875 18.13476562 C-6.69350346 20.42409489 -7.84590035 22.71246641 -9 25 C-10.23593891 21.29218328 -9.5678132 20.32489747 -8.0625 16.8125 C-7.68222656 15.91144531 -7.30195312 15.01039063 -6.91015625 14.08203125 C-6.45962891 13.05142578 -6.45962891 13.05142578 -6 12 C-5.34 12 -4.68 12 -4 12 C-3.8453125 10.700625 -3.8453125 10.700625 -3.6875 9.375 C-2.96601586 5.83316877 -1.72876739 3.15687958 0 0 Z " fill="#3C9DD7" transform="translate(103,288)"/>
<path d="M0 0 C3.38197261 3.28931582 4.93829832 5.39575637 5.125 10.25 C5.08375 11.1575 5.0425 12.065 5 13 C5.66 13 6.32 13 7 13 C8.65 16.63 10.3 20.26 12 24 C11.34 24.33 10.68 24.66 10 25 C9.73445313 24.43410156 9.46890625 23.86820313 9.1953125 23.28515625 C8.66550781 22.18494141 8.66550781 22.18494141 8.125 21.0625 C7.77695312 20.33160156 7.42890625 19.60070312 7.0703125 18.84765625 C6.1315023 16.83667541 6.1315023 16.83667541 4 16 C3.19954337 13.30941402 2.5045341 10.66781273 1.875 7.9375 C1.69324219 7.17888672 1.51148438 6.42027344 1.32421875 5.63867188 C0.87543416 3.76086265 0.43676664 1.88064085 0 0 Z " fill="#5EB3E6" transform="translate(293,159)"/>
<path d="M0 0 C0 3 0 3 -1.28515625 4.68359375 C-5.24939754 8.59555933 -8.92087232 11.65578723 -14 14 C-14.99 13.67 -15.98 13.34 -17 13 C-16.071875 12.62875 -15.14375 12.2575 -14.1875 11.875 C-10.79536351 10.28414214 -10.79536351 10.28414214 -9.625 7.0625 C-7.37486007 2.82185166 -4.32639658 1.747001 0 0 Z " fill="#EC98E3" transform="translate(225,292)"/>
<path d="M0 0 C0.33 0 0.66 0 1 0 C1 2.97 1 5.94 1 9 C0.05125 9.20625 -0.8975 9.4125 -1.875 9.625 C-5.2895788 10.69520182 -5.2895788 10.69520182 -6.25 14.0625 C-6.62125 15.5165625 -6.62125 15.5165625 -7 17 C-7.66 17.33 -8.32 17.66 -9 18 C-7.6510689 13.48548686 -5.83381706 9.67722719 -3.4375 5.625 C-2.81746094 4.56539062 -2.19742188 3.50578125 -1.55859375 2.4140625 C-0.78708984 1.21910156 -0.78708984 1.21910156 0 0 Z " fill="#7DC8EE" transform="translate(60,226)"/>
<path d="M0 0 C5.30574727 3.33504114 7.89020661 8.23323139 10 14 C9.67 14.66 9.34 15.32 9 16 C8.67 15.01 8.34 14.02 8 13 C7.01 13 6.02 13 5 13 C4.15615325 11.58957044 3.32530504 10.17135868 2.5 8.75 C2.0359375 7.96109375 1.571875 7.1721875 1.09375 6.359375 C0 4 0 4 0 0 Z " fill="#73C0EA" transform="translate(229,41)"/>
<path d="M0 0 C1.18771723 3.42943519 0.80226223 5.37784675 -0.4375 8.75 C-0.72496094 9.54921875 -1.01242188 10.3484375 -1.30859375 11.171875 C-1.53675781 11.77515625 -1.76492187 12.3784375 -2 13 C-2.99 13 -3.98 13 -5 13 C-5.33 14.32 -5.66 15.64 -6 17 C-6.66 17 -7.32 17 -8 17 C-6.3341708 10.83643195 -3.12194714 5.51740344 0 0 Z " fill="#6EBCE6" transform="translate(96,159)"/>
<path d="M0 0 C1.5 1.25 1.5 1.25 3 3 C3 4.32 3 5.64 3 7 C3.66 7 4.32 7 5 7 C6.03041513 8.95330868 7.0490893 10.91281528 8.0625 12.875 C8.63097656 13.96554688 9.19945312 15.05609375 9.78515625 16.1796875 C10.18605469 17.11039063 10.58695313 18.04109375 11 19 C10.67 19.66 10.34 20.32 10 21 C7.03858469 17.02546892 4.77408807 13.63992263 3 9 C2.34 8.67 1.68 8.34 1 8 C0.40644386 5.35139573 0.25790731 2.70802678 0 0 Z " fill="#399ADA" transform="translate(236,54)"/>
<path d="M0 0 C1.6415049 3.2830098 0.51888624 6.42545033 0 10 C-0.99 10.33 -1.98 10.66 -3 11 C-3 12.32 -3 13.64 -3 15 C-4.32 15 -5.64 15 -7 15 C-5.45454854 9.52067211 -2.84456788 4.88570819 0 0 Z " fill="#63B9EA" transform="translate(87,176)"/>
<path d="M0 0 C3 1 3 1 4.1875 2.5625 C5.37040794 6.11122383 5.12443279 9.26701621 5 13 C5.66 13.33 6.32 13.66 7 14 C6.01 15.485 6.01 15.485 5 17 C1.79421793 11.60845743 0.93101933 6.15568076 0 0 Z " fill="#3DA5EA" transform="translate(164,59)"/>
<path d="M0 0 C2.33528415 0.17298401 3.69177582 0.70225369 5.37890625 2.33203125 C9 6.57211538 9 6.57211538 9 9 C6.03 8.67 3.06 8.34 0 8 C1 6 2 4 3 2 C2.01 1.67 1.02 1.34 0 1 C0 0.67 0 0.34 0 0 Z " fill="#2497E1" transform="translate(214,22)"/>
<path d="M0 0 C2.66343273 3.33751138 4.70475504 6.88101852 6.75 10.625 C7.38421875 11.77226562 8.0184375 12.91953125 8.671875 14.1015625 C9.11015625 15.05804688 9.5484375 16.01453125 10 17 C9.67 17.66 9.34 18.32 9 19 C8.67 18.01 8.34 17.02 8 16 C7.01 15.67 6.02 15.34 5 15 C1.95621007 10.4343151 0.9732634 5.35294871 0 0 Z " fill="#9BD7F1" transform="translate(271,117)"/>
<path d="M0 0 C4.05819183 0.65503282 7.53971282 1.94559121 11.3125 3.5625 C12.38113281 4.01753906 13.44976562 4.47257812 14.55078125 4.94140625 C15.76314453 5.46541016 15.76314453 5.46541016 17 6 C12.71298085 7.3176139 9.10375757 6.69026055 5 5 C2 2.375 2 2.375 0 0 Z " fill="#75C0E8" transform="translate(25,351)"/>
<path d="M0 0 C0.66 0.33 1.32 0.66 2 1 C-2.02446483 9.81957187 -2.02446483 9.81957187 -6 13 C-6.66 13 -7.32 13 -8 13 C-6.63589551 7.40717158 -3.84616474 4.08806189 0 0 Z " fill="#64B4E5" transform="translate(171,22)"/>
<path d="M0 0 C0.96862277 3.37934846 0.92663319 4.97608033 -0.4375 8.25 C-0.72496094 8.95640625 -1.01242188 9.6628125 -1.30859375 10.390625 C-1.53675781 10.92171875 -1.76492187 11.4528125 -2 12 C-2.99 12 -3.98 12 -5 12 C-5.66 13.65 -6.32 15.3 -7 17 C-7.33 16.34 -7.66 15.68 -8 15 C-6.75874818 12.38838269 -5.4689476 9.89498214 -4.0625 7.375 C-3.48338867 6.31539063 -3.48338867 6.31539063 -2.89257812 5.234375 C-1.93551304 3.48566349 -0.96865969 1.74231568 0 0 Z " fill="#93D1EF" transform="translate(33,276)"/>
<path d="M0 0 C0.66 0 1.32 0 2 0 C2.33 0.99 2.66 1.98 3 3 C2.54625 3.391875 2.0925 3.78375 1.625 4.1875 C-0.27642919 6.30832487 -1.06204028 8.33042235 -2 11 C-2.66 11 -3.32 11 -4 11 C-4.33 12.98 -4.66 14.96 -5 17 C-5.66 17 -6.32 17 -7 17 C-5.34608232 10.77274933 -3.44240996 5.46037442 0 0 Z " fill="#329BDE" transform="translate(55,237)"/>
<path d="M0 0 C0.99 0 1.98 0 3 0 C3.33 0.99 3.66 1.98 4 3 C4.99 3.66 5.98 4.32 7 5 C7.8125 8 7.8125 8 8 11 C7.34 11.66 6.68 12.32 6 13 C4.99491199 11.21118264 3.99607264 9.41885304 3 7.625 C2.1646875 6.12839844 2.1646875 6.12839844 1.3125 4.6015625 C0 2 0 2 0 0 Z " fill="#64B2E7" transform="translate(210,151)"/>
<path d="M0 0 C4.70102928 2.35051464 8.06536554 5.68162968 11 10 C11.671875 12.22265625 11.671875 12.22265625 12 14 C10.68 13.67 9.36 13.34 8 13 C7.9175 12.05125 7.835 11.1025 7.75 10.125 C7.5025 9.09375 7.255 8.0625 7 7 C5.04978917 5.77472052 5.04978917 5.77472052 3 5 C2.67 4.01 2.34 3.02 2 2 C1.34 2 0.68 2 0 2 C0 1.34 0 0.68 0 0 Z " fill="#4EA8E0" transform="translate(155,130)"/>
<path d="M0 0 C2.81158409 2.49824489 4.44837831 5.278476 6.25 8.5625 C6.79140625 9.53316406 7.3328125 10.50382812 7.890625 11.50390625 C8.25671875 12.32761719 8.6228125 13.15132812 9 14 C8.67 14.66 8.34 15.32 8 16 C2.125 11.375 2.125 11.375 1 8 C1.4375 5.8125 1.4375 5.8125 2 4 C1.34 4 0.68 4 0 4 C0 2.68 0 1.36 0 0 Z " fill="#359BDE" transform="translate(247,75)"/>
<path d="M0 0 C2.55227651 3.07150755 3.88776704 5.98525624 5.1875 9.75 C5.53167969 10.73484375 5.87585938 11.7196875 6.23046875 12.734375 C6.61138672 13.85585938 6.61138672 13.85585938 7 15 C6.01 15.495 6.01 15.495 5 16 C4.54625 14.865625 4.0925 13.73125 3.625 12.5625 C2.42904194 8.95278308 2.42904194 8.95278308 0 8 C0 5.36 0 2.72 0 0 Z " fill="#5FB5E6" transform="translate(365,294)"/>
<path d="M0 0 C0.33 0 0.66 0 1 0 C0.53031881 5.63617433 -0.90672313 10.21417541 -4 15 C-4.99 15.495 -4.99 15.495 -6 16 C-6.33 15.01 -6.66 14.02 -7 13 C-6.67 12.34 -6.34 11.68 -6 11 C-5.34 11 -4.68 11 -4 11 C-3.67 9.35 -3.34 7.7 -3 6 C-2.34 6 -1.68 6 -1 6 C-0.67 4.02 -0.34 2.04 0 0 Z " fill="#DB51C7" transform="translate(229,278)"/>
<path d="M0 0 C2.91227269 3.28804981 4.49701212 5.59885603 5 10 C5.66 10 6.32 10 7 10 C7 11.32 7 12.64 7 14 C6.34 14 5.68 14 5 14 C4.67 13.34 4.34 12.68 4 12 C3.01 11.67 2.02 11.34 1 11 C1.020625 10.113125 1.04125 9.22625 1.0625 8.3125 C1.00713781 5.37830369 0.6694266 2.84506304 0 0 Z " fill="#2D98DF" transform="translate(264,107)"/>
<path d="M0 0 C0.33 1.32 0.66 2.64 1 4 C0.34 4 -0.32 4 -1 4 C-1.19335938 4.67546875 -1.38671875 5.3509375 -1.5859375 6.046875 C-1.97652344 7.38492187 -1.97652344 7.38492187 -2.375 8.75 C-2.63023438 9.63171875 -2.88546875 10.5134375 -3.1484375 11.421875 C-3.9209934 13.76080572 -4.83625676 15.83442562 -6 18 C-6.66 18 -7.32 18 -8 18 C-7.39733215 13.49272353 -5.63400206 10.1412037 -3.4375 6.1875 C-2.9434668 5.2912793 -2.9434668 5.2912793 -2.43945312 4.37695312 C-1.63226733 2.91466002 -0.81695083 1.4568601 0 0 Z " fill="#A5DEF5" transform="translate(24,293)"/>
<path d="M0 0 C1.32 0 2.64 0 4 0 C4.03738281 0.58007812 4.07476562 1.16015625 4.11328125 1.7578125 C4.54518362 6.88982895 5.58551551 10.39052962 8 15 C7.67 15.99 7.34 16.98 7 18 C4.37084361 13.08628538 2.38477429 8.43257604 1 3 C0.67 2.01 0.34 1.02 0 0 Z " fill="#2798E3" transform="translate(275,269)"/>
<path d="M0 0 C1.921875 1.08203125 1.921875 1.08203125 4 3 C4.828125 6.13671875 4.828125 6.13671875 5.25 9.6875 C5.39953125 10.86699219 5.5490625 12.04648438 5.703125 13.26171875 C5.80109375 14.16535156 5.8990625 15.06898438 6 16 C2.99181938 12.36611782 2.61529571 9.65866753 2 5 C1.34 4.67 0.68 4.34 0 4 C0 2.68 0 1.36 0 0 Z " fill="#3FA5E5" transform="translate(204,135)"/>
<path d="M0 0 C0.66 0 1.32 0 2 0 C3.03041513 1.95330868 4.0490893 3.91281528 5.0625 5.875 C5.63097656 6.96554688 6.19945312 8.05609375 6.78515625 9.1796875 C7.18605469 10.11039063 7.58695312 11.04109375 8 12 C7.67 12.66 7.34 13.32 7 14 C6.38125 13.030625 5.7625 12.06125 5.125 11.0625 C3.34321154 7.97164638 3.34321154 7.97164638 1 7 C0.59270772 4.67843403 0.25561323 2.3431213 0 0 Z " fill="#359BDF" transform="translate(256,93)"/>
<path d="M0 0 C0.99 0 1.98 0 3 0 C5.41685712 4.22949995 6.34833144 7.12335991 6 12 C3.25207517 8.59780735 0 4.51535412 0 0 Z " fill="#5EB4E2" transform="translate(191,115)"/>
<path d="M0 0 C0.33 0 0.66 0 1 0 C1 2.64 1 5.28 1 8 C-0.98 8.99 -2.96 9.98 -5 11 C-3.55049545 7.2089881 -1.84827434 3.6125362 0 0 Z " fill="#65B7E9" transform="translate(66,215)"/>
<path d="M0 0 C0.99 0.33 1.98 0.66 3 1 C3 1.99 3 2.98 3 4 C3.66 4 4.32 4 5 4 C5 5.65 5 7.3 5 9 C5.99 9 6.98 9 8 9 C7.67 10.32 7.34 11.64 7 13 C7 12.34 7 11.68 7 11 C6.01 10.67 5.02 10.34 4 10 C2.83203125 8.22265625 2.83203125 8.22265625 1.8125 6.0625 C1.46832031 5.35222656 1.12414062 4.64195312 0.76953125 3.91015625 C0 2 0 2 0 0 Z " fill="#2E99E0" transform="translate(236,198)"/>
<path d="M0 0 C0.66 0.33 1.32 0.66 2 1 C0.50829734 5.9723422 -1.60457417 10.41845739 -4 15 C-4.33 15 -4.66 15 -5 15 C-5.20140476 11.37471432 -4.85776765 9.13498292 -3 6 C-2.34 6 -1.68 6 -1 6 C-0.67 4.02 -0.34 2.04 0 0 Z " fill="#5DB1E1" transform="translate(163,177)"/>
<path d="M0 0 C3.93345152 1.31115051 4.32374076 2.84212778 6.25 6.4375 C6.79140625 7.42621094 7.3328125 8.41492188 7.890625 9.43359375 C8.25671875 10.28050781 8.6228125 11.12742188 9 12 C8.67 12.66 8.34 13.32 8 14 C7.34 13.67 6.68 13.34 6 13 C6 11.68 6 10.36 6 9 C5.34 9 4.68 9 4 9 C0 2.25 0 2.25 0 0 Z " fill="#3498D7" transform="translate(286,151)"/>
<path d="M0 0 C0.99 0.33 1.98 0.66 3 1 C3 2.32 3 3.64 3 5 C3.66 5 4.32 5 5 5 C8.10096154 10.45769231 8.10096154 10.45769231 7.58984375 13.203125 C7.39519531 13.79609375 7.20054687 14.3890625 7 15 C5.82823482 12.87767021 4.66245215 10.75242209 3.5 8.625 C3.16613281 8.02171875 2.83226562 7.4184375 2.48828125 6.796875 C0 2.2265625 0 2.2265625 0 0 Z " fill="#75BFE6" transform="translate(177,89)"/>
<path d="M0 0 C2.8748155 2.71376141 4.43316707 5.34405649 6 9 C6 10.32 6 11.64 6 13 C5.01 12.67 4.02 12.34 3 12 C2.05078125 9.27734375 2.05078125 9.27734375 1.3125 5.9375 C1.06113281 4.83277344 0.80976563 3.72804688 0.55078125 2.58984375 C0.36902344 1.73519531 0.18726563 0.88054687 0 0 Z " fill="#329ADD" transform="translate(342,254)"/>
<path d="M0 0 C0.66 0.33 1.32 0.66 2 1 C2.125 6.75 2.125 6.75 1 9 C-1.0625 9.625 -1.0625 9.625 -3 10 C-3 8.68 -3 7.36 -3 6 C-2.34 6 -1.68 6 -1 6 C-1.0309375 4.7934375 -1.0309375 4.7934375 -1.0625 3.5625 C-1 1 -1 1 0 0 Z " fill="#2B9BE5" transform="translate(165,169)"/>
<path d="M0 0 C0.6875 1.8125 0.6875 1.8125 1 4 C-0.25 5.5 -0.25 5.5 -2 7 C-2.7734375 8.0828125 -2.7734375 8.0828125 -3.5625 9.1875 C-4.2740625 10.0846875 -4.2740625 10.0846875 -5 11 C-5.66 11 -6.32 11 -7 11 C-5.5140084 6.40693504 -3.14985318 3.56430755 0 0 Z " fill="#59AFE4" transform="translate(112,133)"/>
<path d="M0 0 C1.42944945 2.35438733 2.08661261 3.48032433 1.625 6.25 C1.41875 6.8275 1.2125 7.405 1 8 C-0.65 8.33 -2.3 8.66 -4 9 C-2.94124926 5.59687262 -1.99097846 2.98646769 0 0 Z " fill="#5BB3EB" transform="translate(71,206)"/>
<path d="M0 0 C0.99 0 1.98 0 3 0 C1.58707905 4.8274799 -0.42974154 8.7162359 -3 13 C-4 11 -4 11 -3.22265625 8.3984375 C-2.83980469 7.40070313 -2.45695313 6.40296875 -2.0625 5.375 C-1.68222656 4.37210938 -1.30195313 3.36921875 -0.91015625 2.3359375 C-0.60980469 1.56507813 -0.30945313 0.79421875 0 0 Z " fill="#7EC6EA" transform="translate(155,192)"/>
<path d="M0 0 C6.4 -0.36923077 6.4 -0.36923077 9.4375 1.5 C9.953125 1.995 10.46875 2.49 11 3 C9.906875 2.979375 8.81375 2.95875 7.6875 2.9375 C4.05615809 2.81455548 4.05615809 2.81455548 1 4 C0.67 2.68 0.34 1.36 0 0 Z " fill="#3BA1E5" transform="translate(144,127)"/>
<path d="M0 0 C-4.15984612 3.89985574 -7.55084591 4.89169747 -13 6 C-12.34 5.01 -11.68 4.02 -11 3 C-10.34 3 -9.68 3 -9 3 C-8.67 2.34 -8.34 1.68 -8 1 C-3.6 -1.2 -3.6 -1.2 0 0 Z " fill="#74BFE9" transform="translate(186,16)"/>
<path d="M0 0 C2.52394612 3.12488567 4.39701907 6.31314387 6 10 C5.67 10.66 5.34 11.32 5 12 C2.5 9.9375 2.5 9.9375 0 7 C-0.3125 3.1875 -0.3125 3.1875 0 0 Z " fill="#369DDE" transform="translate(335,240)"/>
<path d="M0 0 C0.66 0 1.32 0 2 0 C2.3125 2.8125 2.3125 2.8125 2 6 C-0.5 7.875 -0.5 7.875 -3 9 C-2.44271087 5.65626525 -1.64826111 2.96687001 0 0 Z " fill="#309BE2" transform="translate(28,288)"/>
<path d="M0 0 C2.48982535 2.27745789 4.10368997 4.62335238 5.75 7.5625 C6.19859375 8.34753906 6.6471875 9.13257813 7.109375 9.94140625 C7.40328125 10.62074219 7.6971875 11.30007812 8 12 C7.67 12.66 7.34 13.32 7 14 C6.731875 13.195625 6.46375 12.39125 6.1875 11.5625 C5.795625 10.716875 5.40375 9.87125 5 9 C4.01 8.67 3.02 8.34 2 8 C1.26953125 6.15234375 1.26953125 6.15234375 0.8125 3.9375 C0.65394531 3.20402344 0.49539063 2.47054687 0.33203125 1.71484375 C0.22246094 1.14894531 0.11289062 0.58304688 0 0 Z " fill="#3998D6" transform="translate(304,183)"/>
<path d="M0 0 C0.66 0 1.32 0 2 0 C2.33 2.31 2.66 4.62 3 7 C1.68 6.67 0.36 6.34 -1 6 C-1.33 6.99 -1.66 7.98 -2 9 C-2.25 3.375 -2.25 3.375 0 0 Z " fill="#41A5E3" transform="translate(104,144)"/>
<path d="M0 0 C-3.14573677 2.09715785 -5.01456251 2.52004559 -8.6875 3.125 C-9.68136719 3.29257813 -10.67523438 3.46015625 -11.69921875 3.6328125 C-12.45847656 3.75398437 -13.21773438 3.87515625 -14 4 C-11.75443175 1.3225917 -10.41718023 0.11298631 -7 -0.8125 C-4.3159514 -0.98025304 -2.51525694 -0.87066586 0 0 Z " fill="#44A7E4" transform="translate(127,129)"/>
<path d="M0 0 C0.33 0.66 0.66 1.32 1 2 C-0.77479455 7.22578394 -2.81188075 10.2646504 -7 14 C-6.690625 13.236875 -6.38125 12.47375 -6.0625 11.6875 C-5.32106407 9.81210323 -4.63771783 7.91315348 -4 6 C-3.34 5.67 -2.68 5.34 -2 5 C-1.27840576 3.35636866 -0.60648579 1.68949614 0 0 Z " fill="#3095D9" transform="translate(78,336)"/>
<path d="M0 0 C0.66 0 1.32 0 2 0 C0.58707905 4.8274799 -1.42974154 8.7162359 -4 13 C-5.0169313 10.34501768 -5.13022151 9.30844625 -4.00390625 6.640625 C-3.52824219 5.85171875 -3.05257812 5.0628125 -2.5625 4.25 C-2.08941406 3.45078125 -1.61632812 2.6515625 -1.12890625 1.828125 C-0.75636719 1.22484375 -0.38382812 0.6215625 0 0 Z " fill="#3E9CDA" transform="translate(111,275)"/>
<path d="M0 0 C2.31 0.33 4.62 0.66 7 1 C7.66 2.65 8.32 4.3 9 6 C4.64464931 4.83857315 2.35380297 3.92300495 0 0 Z " fill="#E98CE0" transform="translate(170,299)"/>
<path d="M0 0 C2.34917898 2.15341406 3.82443004 4.21667937 5.25 7.0625 C5.60578125 7.75472656 5.9615625 8.44695312 6.328125 9.16015625 C6.54984375 9.76730469 6.7715625 10.37445313 7 11 C6.67 11.66 6.34 12.32 6 13 C2.57546571 8.60957142 0.41778991 5.7097955 0 0 Z " fill="#3A9AD7" transform="translate(317,207)"/>
<path d="M0 0 C0.33 0 0.66 0 1 0 C1.05410687 1.77049689 1.09284119 3.54146849 1.125 5.3125 C1.14820313 6.29863281 1.17140625 7.28476563 1.1953125 8.30078125 C1 11 1 11 -1 14 C-2.51708428 4.58997722 -2.51708428 4.58997722 0 0 Z " fill="#1C96ED" transform="translate(168,156)"/>
<path d="M0 0 C0.99 0.33 1.98 0.66 3 1 C1.6875 4.4375 1.6875 4.4375 0 8 C-0.99 8.33 -1.98 8.66 -3 9 C-2 6 -1 3 0 0 Z " fill="#E643D6" transform="translate(215,294)"/>
<path d="M0 0 C0.99 0 1.98 0 3 0 C1.80100302 3.0831351 0.52299523 6.06279492 -1 9 C-1.66 9 -2.32 9 -3 9 C-2.30058404 5.85262818 -1.23921302 2.97411124 0 0 Z " fill="#2E98DB" transform="translate(103,288)"/>
<path d="M0 0 C0.66 0 1.32 0 2 0 C0.68938409 4.23429756 -0.94356259 8.07407404 -3 12 C-3.66 11.67 -4.32 11.34 -5 11 C-4.731875 10.484375 -4.46375 9.96875 -4.1875 9.4375 C-2.67650593 6.33598585 -1.34427274 3.17737194 0 0 Z " fill="#3F9DD7" transform="translate(130,239)"/>
<path d="M0 0 C1.18771723 3.42943519 0.80226223 5.37784675 -0.4375 8.75 C-0.86869141 9.94882813 -0.86869141 9.94882813 -1.30859375 11.171875 C-1.53675781 11.77515625 -1.76492187 12.3784375 -2 13 C-2.66 13 -3.32 13 -4 13 C-3.71682074 11.39431334 -3.42312209 9.79047953 -3.125 8.1875 C-2.96257812 7.29417969 -2.80015625 6.40085938 -2.6328125 5.48046875 C-2 3 -2 3 0 0 Z " fill="#46A9E7" transform="translate(96,159)"/>
<path d="M0 0 C0.66 0 1.32 0 2 0 C1.67 2.31 1.34 4.62 1 7 C-0.32 7.33 -1.64 7.66 -3 8 C-1.125 2.25 -1.125 2.25 0 0 Z " fill="#379DE0" transform="translate(23,297)"/>
<path d="M0 0 C2.39489543 0.74324341 3.70777616 1.47057354 4.93359375 3.69140625 C5.67219923 5.44073501 6.34049685 7.21934149 7 9 C2.59154528 7.53051509 2.10244988 5.05990322 0 1 C0 0.67 0 0.34 0 0 Z " fill="#E793DF" transform="translate(219,246)"/>
<path d="M0 0 C1.48199902 0.44909061 2.96055236 0.90956564 4.4375 1.375 C5.26121094 1.63023437 6.08492187 1.88546875 6.93359375 2.1484375 C9 3 9 3 10 5 C6.28111761 4.49287967 3.26545761 3.88391785 0 2 C0 1.34 0 0.68 0 0 Z " fill="#DE7ED6" transform="translate(209,241)"/>
<path d="M0 0 C1.32 0.33 2.64 0.66 4 1 C4 1.66 4 2.32 4 3 C4.99 3 5.98 3 7 3 C7 3.66 7 4.32 7 5 C5.35 5 3.7 5 2 5 C1.34 3.35 0.68 1.7 0 0 Z " fill="#DE48CC" transform="translate(177,300)"/>
<path d="M0 0 C0.99 0 1.98 0 3 0 C2.67 1.98 2.34 3.96 2 6 C0.68 6 -0.64 6 -2 6 C-1.34 4.02 -0.68 2.04 0 0 Z " fill="#4AA9E2" transform="translate(82,185)"/>
<path d="M0 0 C0.99 0.33 1.98 0.66 3 1 C3 2.32 3 3.64 3 5 C3.99 5.33 4.98 5.66 6 6 C5.01 7.485 5.01 7.485 4 9 C0 2.25 0 2.25 0 0 Z " fill="#6DBDE6" transform="translate(201,134)"/>
<path d="M0 0 C2.475 0.495 2.475 0.495 5 1 C5.66 2.98 6.32 4.96 7 7 C5.68 6.67 4.36 6.34 3 6 C3.33 4.68 3.66 3.36 4 2 C2.68 1.34 1.36 0.68 0 0 Z " fill="#DC4DCB" transform="translate(215,246)"/>
<path d="M0 0 C0.66 0.33 1.32 0.66 2 1 C1.67 2.65 1.34 4.3 1 6 C0.01 6 -0.98 6 -2 6 C-2.33 6.99 -2.66 7.98 -3 9 C-3 7.02 -3 5.04 -3 3 C-2.34 3 -1.68 3 -1 3 C-0.67 2.01 -0.34 1.02 0 0 Z " fill="#1F97E7" transform="translate(157,186)"/>
<path d="M0 0 C0.99 0.33 1.98 0.66 3 1 C2.67 1.66 2.34 2.32 2 3 C2.66 3 3.32 3 4 3 C4.33 4.98 4.66 6.96 5 9 C0.57142857 3.85714286 0.57142857 3.85714286 0 0 Z " fill="#76C4EB" transform="translate(170,76)"/>
<path d="M0 0 C0.99 0 1.98 0 3 0 C3 0.99 3 1.98 3 3 C2.34 3.66 1.68 4.32 1 5 C0.01 5 -0.98 5 -2 5 C-1.34 3.35 -0.68 1.7 0 0 Z " fill="#E773DA" transform="translate(164,252)"/>
<path d="M0 0 C0.33 0.66 0.66 1.32 1 2 C1.99 2.33 2.98 2.66 4 3 C4.33 4.65 4.66 6.3 5 8 C2 7 2 7 0.8125 5.125 C0 3 0 3 0 0 Z " fill="#2C97E1" transform="translate(252,227)"/>
<path d="M0 0 C0.33 0 0.66 0 1 0 C1 1.98 1 3.96 1 6 C-0.32 6.33 -1.64 6.66 -3 7 C-1.125 1.125 -1.125 1.125 0 0 Z " fill="#6CBAE8" transform="translate(79,191)"/>
<path d="M0 0 C0.99 0.495 0.99 0.495 2 1 C2.75 3.9375 2.75 3.9375 3 7 C2.34 7.66 1.68 8.32 1 9 C-0.4783226 6.04335481 -0.06032783 3.25770263 0 0 Z " fill="#3BA3E7" transform="translate(215,155)"/>
<path d="" fill="#FFFFFF" transform="translate(0,0)"/>
<path d="" fill="#FFFFFF" transform="translate(0,0)"/>
<path d="" fill="#FFFFFF" transform="translate(0,0)"/>
<path d="" fill="#FFFFFF" transform="translate(0,0)"/>
<path d="" fill="#FFFFFF" transform="translate(0,0)"/>
<path d="" fill="#FFFFFF" transform="translate(0,0)"/>
<path d="" fill="#FFFFFF" transform="translate(0,0)"/>
<path d="" fill="#FFFFFF" transform="translate(0,0)"/>
<path d="" fill="#FFFFFF" transform="translate(0,0)"/>
<path d="" fill="#FFFFFF" transform="translate(0,0)"/>
<path d="" fill="#FFFFFF" transform="translate(0,0)"/>
<path d="" fill="#FFFFFF" transform="translate(0,0)"/>
<path d="" fill="#FFFFFF" transform="translate(0,0)"/>
<path d="" fill="#FFFFFF" transform="translate(0,0)"/>
<path d="" fill="#FFFFFF" transform="translate(0,0)"/>
<path d="" fill="#FFFFFF" transform="translate(0,0)"/>
<path d="" fill="#FFFFFF" transform="translate(0,0)"/>
<path d="" fill="#FFFFFF" transform="translate(0,0)"/>
<path d="" fill="#FFFFFF" transform="translate(0,0)"/>
<path d="" fill="#FFFFFF" transform="translate(0,0)"/>
<path d="" fill="#FFFFFF" transform="translate(0,0)"/>
<path d="" fill="#FFFFFF" transform="translate(0,0)"/>
<path d="" fill="#FFFFFF" transform="translate(0,0)"/>
<path d="" fill="#FFFFFF" transform="translate(0,0)"/>
<path d="" fill="#FFFFFF" transform="translate(0,0)"/>
<path d="" fill="#FFFFFF" transform="translate(0,0)"/>
<path d="" fill="#FF00FF" transform="translate(0,0)"/>
<path d="" fill="#FFFFFF" transform="translate(0,0)"/>
<path d="" fill="#FFFFFF" transform="translate(0,0)"/>
<path d="" fill="#FFFFFF" transform="translate(0,0)"/>
<path d="" fill="#FFFFFF" transform="translate(0,0)"/>
<path d="" fill="#FFFFFF" transform="translate(0,0)"/>
<path d="" fill="#FFFFFF" transform="translate(0,0)"/>
<path d="" fill="#FFFFFF" transform="translate(0,0)"/>
<path d="" fill="#FFFFFF" transform="translate(0,0)"/>
<path d="" fill="#FFFFFF" transform="translate(0,0)"/>
<path d="" fill="#FFFFFF" transform="translate(0,0)"/>
<path d="" fill="#FFFFFF" transform="translate(0,0)"/>
<path d="" fill="#FFFFFF" transform="translate(0,0)"/>
<path d="" fill="#FFFFFF" transform="translate(0,0)"/>
<path d="" fill="#FFFFFF" transform="translate(0,0)"/>
<path d="" fill="#FFFFFF" transform="translate(0,0)"/>
<path d="" fill="#FFFFFF" transform="translate(0,0)"/>
<path d="" fill="#FFFFFF" transform="translate(0,0)"/>
<path d="" fill="#FFFFFF" transform="translate(0,0)"/>
<path d="" fill="#FFFFFF" transform="translate(0,0)"/>
<path d="" fill="#FFFFFF" transform="translate(0,0)"/>
<path d="" fill="#FFFFFF" transform="translate(0,0)"/>
<path d="" fill="#FFFFFF" transform="translate(0,0)"/>
<path d="" fill="#FFFFFF" transform="translate(0,0)"/>
<path d="" fill="#FFFFFF" transform="translate(0,0)"/>
<path d="" fill="#FFFFFF" transform="translate(0,0)"/>
<path d="" fill="#FFFFFF" transform="translate(0,0)"/>
<path d="" fill="#FFFFFF" transform="translate(0,0)"/>
<path d="" fill="#FFFFFF" transform="translate(0,0)"/>
<path d="" fill="#FFFFFF" transform="translate(0,0)"/>
<path d="" fill="#FFFFFF" transform="translate(0,0)"/>
<path d="" fill="#FFFFFF" transform="translate(0,0)"/>
<path d="" fill="#FFFFFF" transform="translate(0,0)"/>
<path d="" fill="#FFFFFF" transform="translate(0,0)"/>
<path d="" fill="#FFFFFF" transform="translate(0,0)"/>
<path d="" fill="#FFFFFF" transform="translate(0,0)"/>
<path d="" fill="#FFFFFF" transform="translate(0,0)"/>
<path d="" fill="#FFFFFF" transform="translate(0,0)"/>
<path d="" fill="#FFFFFF" transform="translate(0,0)"/>
<path d="" fill="#FFFFFF" transform="translate(0,0)"/>
<path d="" fill="#FFFFFF" transform="translate(0,0)"/>
<path d="" fill="#FFFFFF" transform="translate(0,0)"/>
<path d="" fill="#FFFFFE" transform="translate(0,0)"/>
<path d="" fill="#FFFFFF" transform="translate(0,0)"/>
<path d="" fill="#FFFFFF" transform="translate(0,0)"/>
<path d="" fill="#FFFFFF" transform="translate(0,0)"/>
<path d="" fill="#FFFFFF" transform="translate(0,0)"/>
<path d="" fill="#FFFFFF" transform="translate(0,0)"/>
<path d="" fill="#FFFFFF" transform="translate(0,0)"/>
</svg>
