<?xml version="1.0" encoding="UTF-8"?>
<svg version="1.1" xmlns="http://www.w3.org/2000/svg" width="859" height="290">
<path d="M0 0 C2.66759469 2.98142936 3.75571995 5.62749671 5.125 9.375 C5.59808594 8.91609375 6.07117188 8.4571875 6.55859375 7.984375 C16.17118214 -0.9349078 25.40637668 -3.06514115 38.328125 -2.8359375 C47.02331388 -2.35287145 53.821755 0.30071902 60.125 6.375 C62.2884127 8.94058557 64.25742225 11.58778169 66.125 14.375 C66.52589844 13.86710937 66.92679687 13.35921875 67.33984375 12.8359375 C74.03980659 4.72305733 81.59782835 -0.81517106 92.125 -2.625 C102.8086511 -3.59379456 114.57982113 -2.7112459 123.125 4.375 C130.31605471 10.51370524 133.69745679 18.14715031 135.125 27.375 C135.46847889 32.32220436 135.54589131 37.26930617 135.609375 42.2265625 C135.63322279 43.65425454 135.65758515 45.08193807 135.68243408 46.50961304 C135.73206624 49.48649538 135.77492226 52.46337772 135.81298828 55.44042969 C135.86221548 59.24111566 135.92938571 63.04123945 136.00173569 66.84154701 C136.05560746 69.78409266 136.09948339 72.72672447 136.14044952 75.66947556 C136.16122067 77.07044898 136.18514668 78.47137956 136.21239471 79.87224197 C136.24913373 81.8334459 136.27083753 83.79491372 136.29199219 85.75634766 C136.30816589 86.86837555 136.3243396 87.98040344 136.34100342 89.12612915 C136.05686113 93.39986518 135.46495232 97.71032385 132.72265625 101.1171875 C127.68570705 104.83402024 124.38399477 105.79933863 118.125 105.375 C114.05276094 103.93773915 111.29122711 102.1863645 108.94998169 98.49499512 C107.00896039 93.50705934 107.58776305 87.84843708 107.62109375 82.578125 C107.61371569 81.22058809 107.60416176 79.86306145 107.59254456 78.5055542 C107.5659088 74.93863892 107.56024566 71.37205767 107.56164551 67.80505371 C107.56387709 62.11165219 107.54936677 56.41866727 107.50605965 50.72542572 C107.49633767 48.75262091 107.50530611 46.77975194 107.51475525 44.8069458 C107.47544465 37.83295246 107.43133865 30.69692757 104.125 24.375 C99.56683958 20.40928511 95.29779873 20.07349312 89.43359375 20.16015625 C83.19342975 20.74088217 79.09714544 23.74083032 75.125 28.375 C71.77745241 33.27676611 71.00613194 37.07406482 70.96728516 42.95043945 C70.95189194 44.6278698 70.95189194 44.6278698 70.93618774 46.33918762 C70.92888641 47.54338852 70.92158508 48.74758942 70.9140625 49.98828125 C70.88599461 52.54102204 70.85733015 55.09375634 70.828125 57.64648438 C70.78686731 61.66886405 70.74892776 65.69111467 70.72363281 69.71362305 C70.69599752 73.59709704 70.65012583 77.48002007 70.6015625 81.36328125 C70.59830963 82.56140945 70.59505676 83.75953766 70.59170532 84.99397278 C70.50058983 91.19655631 70.24236688 95.94644962 67.125 101.375 C63.63178957 104.69780992 60.83042792 105.65564922 56.125 105.875 C50.5600352 105.64068569 47.26569624 103.69384954 43.48988342 99.60380554 C41.73220449 96.73357906 41.74060497 94.81935072 41.72436523 91.46411133 C41.70435707 89.67623955 41.70435707 89.67623955 41.6839447 87.85224915 C41.68377098 85.92411629 41.68377098 85.92411629 41.68359375 83.95703125 C41.6718109 82.61665918 41.65844445 81.27630019 41.64356995 79.93595886 C41.607395 76.40653495 41.58719556 72.87722668 41.57202148 69.34765625 C41.54720291 63.71702139 41.50707163 58.08664271 41.45012093 52.45624352 C41.43396309 50.50170858 41.43038872 48.54708249 41.42710876 46.59248352 C41.35681536 34.51445246 41.35681536 34.51445246 37.125 23.375 C31.09742941 19.93067395 25.46667385 19.25069032 18.7265625 20.99609375 C13.64934548 22.8937247 10.86545978 25.25387199 8.09765625 29.88671875 C4.98487007 37.84995088 4.83222541 45.67571799 4.81640625 54.109375 C4.79126848 56.56380469 4.76587017 59.01823172 4.74023438 61.47265625 C4.71140606 65.31298251 4.68736266 69.15326301 4.66870117 72.99365234 C4.64708911 76.71995223 4.60768072 80.44574871 4.56640625 84.171875 C4.56629044 85.32089294 4.56617462 86.46991089 4.5660553 87.65374756 C4.55271652 88.72546204 4.53937775 89.79717651 4.52563477 90.90136719 C4.51802879 92.30959747 4.51802879 92.30959747 4.51026917 93.74627686 C3.86197559 98.16963712 1.82703513 100.7414561 -1.4375 103.6875 C-6.04920055 105.95142572 -9.82647555 106.17948032 -14.875 105.375 C-19.93091116 102.98493291 -21.81764027 100.49246312 -23.875 95.375 C-24.28710431 92.48134393 -24.2855706 89.63015894 -24.26318359 86.7109375 C-24.26844055 85.86138489 -24.27369751 85.01183228 -24.27911377 84.13653564 C-24.29226919 81.34083426 -24.28359153 78.54570673 -24.2734375 75.75 C-24.27545952 73.79996634 -24.27837202 71.84993342 -24.28213501 69.89990234 C-24.28655232 65.81796044 -24.28014634 61.73621581 -24.26611328 57.65429688 C-24.24902182 52.42878516 -24.25886616 47.20373574 -24.27683067 41.97824097 C-24.28768448 37.95300835 -24.28421482 33.92788487 -24.2764473 29.90264893 C-24.27444971 27.97617538 -24.27688903 26.04969185 -24.28388596 24.12322998 C-24.29152668 21.42824145 -24.27985961 18.73399587 -24.26318359 16.0390625 C-24.26925629 15.24719543 -24.27532898 14.45532837 -24.28158569 13.63946533 C-24.22664871 8.83365667 -23.51494195 5.54514729 -20.875 1.375 C-14.508004 -3.35943292 -6.9484979 -3.92741186 0 0 Z " fill="#3D3D3D" transform="translate(251.875,80.625)"/>
<path d="M0 0 C3.96587269 3.57117906 5.30901892 5.91824295 5.65942383 11.27099609 C5.70033232 13.35480213 5.7147439 15.43924422 5.70703125 17.5234375 C5.72971321 19.17540634 5.72971321 19.17540634 5.75285339 20.86074829 C5.79571586 24.36570739 5.80456752 27.86980497 5.8125 31.375 C5.83564525 33.7565333 5.86101064 36.13804612 5.88867188 38.51953125 C5.95151 44.34636236 5.98645563 50.172857 6 56 C6.79664063 55.28227417 6.79664063 55.28227417 7.609375 54.55004883 C8.66898438 53.60681763 8.66898438 53.60681763 9.75 52.64453125 C10.44609375 52.02167236 11.1421875 51.39881348 11.859375 50.75708008 C19.47613007 44.50505154 28.72964189 42.61246461 38.375 42.6875 C39.48645386 42.69378418 39.48645386 42.69378418 40.62036133 42.70019531 C51.54857667 42.92460869 59.40556876 46.13866745 67.125 54 C74.21360048 62.20000629 76.08430754 72.97561395 76.17700195 83.55273438 C76.19625481 85.47502869 76.19625481 85.47502869 76.21589661 87.43615723 C76.22406262 88.82201751 76.23150662 90.20788221 76.23828125 91.59375 C76.24235678 92.29787521 76.2464323 93.00200043 76.25063133 93.72746277 C76.271409 97.4496531 76.28575021 101.17180739 76.29516602 104.89404297 C76.30625529 108.72736951 76.34070702 112.5601196 76.38033772 116.39324188 C76.40651961 119.35301771 76.41485884 122.31265579 76.41844749 125.27253723 C76.42330394 126.68549016 76.43489112 128.09843732 76.45348549 129.51127625 C76.47792153 131.48979611 76.47448774 133.46860002 76.4699707 135.44726562 C76.47583694 136.57056274 76.48170319 137.69385986 76.48774719 138.85119629 C75.75267303 143.5966962 73.43485155 146.73395451 69.875 149.875 C65.55651358 151.56484251 61.5732948 151.65960983 57 151 C52.45305175 148.76786177 50.23632248 146.48895753 48 142 C47.62145996 139.10552979 47.62145996 139.10552979 47.61523438 135.88378906 C47.60512329 134.67192932 47.59501221 133.46006958 47.58459473 132.21148682 C47.58761597 130.90935242 47.59063721 129.60721802 47.59375 128.265625 C47.58450673 126.90426391 47.57353265 125.54291357 47.56091309 124.18157959 C47.52422346 119.87106693 47.5104499 115.56064571 47.5 111.25 C47.48787115 106.26462595 47.46604126 101.27967303 47.41999817 96.294487 C47.4065584 94.31113605 47.41077457 92.3276904 47.41540527 90.34429932 C47.45270746 79.11418468 47.45270746 79.11418468 42.55627441 69.3369751 C38.31329297 65.69188496 32.92911825 65.63374278 27.59765625 65.73828125 C22.06259681 66.29594889 16.84776347 68.30912481 12 71 C10.84077872 72.73142854 10.84077872 72.73142854 10 75 C9.484375 76.093125 8.96875 77.18625 8.4375 78.3125 C5.51983865 85.79693563 5.84036377 93.3850314 5.7890625 101.3203125 C5.76101356 103.73568409 5.73234926 106.1510486 5.703125 108.56640625 C5.66176479 112.35628201 5.62485455 116.14602258 5.59863281 119.93603516 C5.57107074 123.6060673 5.52522481 127.27550766 5.4765625 130.9453125 C5.47330963 132.07873077 5.47005676 133.21214905 5.46670532 134.37991333 C5.44185562 135.96713699 5.44185562 135.96713699 5.41650391 137.58642578 C5.40841705 138.51351349 5.4003302 139.4406012 5.39199829 140.39578247 C4.91788884 143.54550064 3.84949455 145.42524192 2 148 C-2.99510522 151.53312321 -8.08792274 151.8267295 -14 151 C-17.36216521 149.59400364 -19.22996964 148.53170944 -20.89340496 145.22287941 C-23.24359954 138.59259805 -23.41899714 132.41907149 -23.37231445 125.43115234 C-23.37596512 124.20237869 -23.37961578 122.97360504 -23.38337708 121.70759583 C-23.39005932 118.36251769 -23.38342124 115.01800305 -23.37004495 111.67298079 C-23.35865864 108.15956088 -23.36284334 104.64615403 -23.36479187 101.13272095 C-23.36567236 95.2368694 -23.35464407 89.34113337 -23.33618164 83.4453125 C-23.3149981 76.64183455 -23.31150979 69.83852545 -23.3177436 63.03502119 C-23.3234492 56.47026122 -23.31777879 49.90556032 -23.30657005 43.34080887 C-23.30194189 40.55549648 -23.30104243 37.77022042 -23.3031559 34.98490524 C-23.30539902 31.09322635 -23.29089133 27.20170628 -23.2746582 23.31005859 C-23.27713562 22.16182114 -23.27961304 21.01358368 -23.28216553 19.83055115 C-23.19689894 7.01056521 -23.19689894 7.01056521 -19.3125 1.6875 C-13.45487468 -2.58698334 -6.5495768 -2.94836255 0 0 Z " fill="#404040" transform="translate(755,35)"/>
<path d="M0 0 C7.60623643 5.35893931 11.37504596 13.31977928 15.5625 21.375 C16.21264879 22.60919472 16.86371308 23.84290754 17.515625 25.07617188 C18.89322608 27.68505469 20.26602492 30.29638183 21.63525391 32.90966797 C23.73661021 36.91715138 25.85584991 40.91496602 27.98046875 44.91015625 C28.3317131 45.57065475 28.68295746 46.23115326 29.04484558 46.91166687 C29.75639835 48.24946831 30.46802257 49.58723174 31.17971802 50.92495728 C32.25340376 52.94390038 33.32599226 54.96342239 34.39819336 56.9831543 C47.88911659 82.41845857 47.88911659 82.41845857 61.6875 107.6875 C65.16059047 113.95295271 68.48029961 120.26337096 71.60742188 126.70849609 C73.56868939 130.70823848 75.66796847 134.59852485 77.875 138.46875 C78.42164307 139.43570801 78.96828613 140.40266602 79.53149414 141.39892578 C80.60702126 143.29120657 81.69662163 145.17558238 82.80249023 147.05029297 C86.71374591 153.95981872 88.5882467 160.18743535 87.1875 168.125 C84.17151864 174.02583309 80.1916355 178.8315807 73.75 180.9375 C67.78423396 181.62960684 62.7736895 181.50990142 57.75 177.9375 C51.51346673 171.97625045 47.85644554 164.96993498 44.0625 157.3125 C42.83577408 154.88284962 41.60097515 152.45732019 40.3671875 150.03125 C40.06092941 149.42618622 39.75467133 148.82112244 39.43913269 148.19772339 C36.63596901 142.67165306 33.68421448 137.23531688 30.6875 131.8125 C26.4275101 124.07775873 22.3024975 116.28290441 18.25 108.4375 C13.68155638 99.59394921 8.99460139 90.82777891 4.19921875 82.10546875 C0.11230936 74.65223663 -3.82285105 67.12609215 -7.73046875 59.57763672 C-11.81026301 51.72000666 -16.03134726 43.94500666 -20.33007812 36.20507812 C-28.40292102 21.57651095 -28.40292102 21.57651095 -27.25 12.9375 C-25.13750516 7.15593519 -21.62108263 3.53660224 -16.5625 0.125 C-10.94159291 -1.89004217 -5.6676102 -1.85287257 0 0 Z " fill="#179BF3" transform="translate(128.25,20.0625)"/>
<path d="M0 0 C7.43727177 6.72967709 11.31833207 16.59716847 12.29733276 26.44381714 C12.43883084 30.58037308 12.46069243 34.6980157 12.42578125 38.8359375 C12.42593663 40.35380625 12.42743201 41.87167538 12.43019104 43.38954163 C12.43156464 46.54543948 12.41918346 49.70087704 12.39624023 52.85668945 C12.36768639 56.89393637 12.37065278 60.93043012 12.38333035 64.96773434 C12.39028965 68.09135854 12.3824983 71.21480929 12.37007332 74.33841133 C12.36557325 75.82750343 12.36520934 77.31661422 12.36913872 78.80570793 C12.37205796 80.88249803 12.35551823 82.95825313 12.33374023 85.03491211 C12.32833725 86.21339218 12.32293427 87.39187225 12.31736755 88.60606384 C11.88727958 92.08957837 11.02119607 93.95290199 8.9296875 96.74609375 C4.44040442 99.77374978 0.22000581 100.70700985 -5.0703125 99.74609375 C-8.9491998 97.69687027 -11.86676979 95.57329951 -14.0703125 91.74609375 C-14.7578125 88.99609375 -14.7578125 88.99609375 -15.0703125 86.74609375 C-15.39902344 87.19339844 -15.72773437 87.64070313 -16.06640625 88.1015625 C-20.79829934 94.11581144 -26.51955388 98.11921616 -34.0703125 99.74609375 C-44.80059458 100.7687651 -54.78077496 100.73832104 -64.0703125 94.74609375 C-65.17246094 94.07707031 -65.17246094 94.07707031 -66.296875 93.39453125 C-72.9261434 88.95019027 -77.64300412 82.3494433 -80.0703125 74.74609375 C-80.87653302 65.39602976 -81.04914808 56.63437746 -74.8828125 49.05859375 C-57.84176328 35.04706439 -35.13885393 35.25485833 -14.0703125 35.74609375 C-14.44192357 33.3442173 -14.84134068 30.95274992 -15.2578125 28.55859375 C-15.35900391 27.88505859 -15.46019531 27.21152344 -15.56445312 26.51757812 C-16.47563417 21.46914258 -18.12636118 18.96859056 -22.0703125 15.74609375 C-29.29546526 12.37435579 -36.74190994 13.58245037 -44.1953125 15.43359375 C-44.92524414 15.60785889 -45.65517578 15.78212402 -46.40722656 15.96166992 C-52.51048171 17.47555811 -58.28443353 19.53402654 -64.1171875 21.890625 C-67.32782202 22.82068976 -68.92803568 22.79351936 -72.0703125 21.74609375 C-74.95884601 19.69202547 -76.74471773 18.16047745 -77.55859375 14.625 C-77.80473247 10.45470684 -77.30884072 8.15954267 -75.1953125 4.49609375 C-58.29572696 -12.59231397 -18.83541709 -13.83333746 0 0 Z M-51.0703125 57.74609375 C-53.76529666 61.78857 -53.73591383 64.99759645 -53.0703125 69.74609375 C-50.41672752 74.86372193 -47.53913424 77.92315317 -42.0703125 79.74609375 C-34.32311877 80.74114616 -28.54360176 79.05766073 -22.0703125 74.74609375 C-15.39534714 68.24228135 -14.53587168 60.62382577 -14.0703125 51.74609375 C-33.69821953 50.42393196 -33.69821953 50.42393196 -51.0703125 57.74609375 Z " fill="#3D3D3D" transform="translate(704.0703125,86.25390625)"/>
<path d="M0 0 C6.81256548 5.71020861 10.97818354 14.3319089 12.4140625 23.0234375 C12.63672969 25.61890749 12.82015229 28.1969546 12.95703125 30.796875 C12.99845749 31.5732431 13.03988373 32.34961121 13.08256531 33.14950562 C13.55943578 42.91148597 13.67237744 52.67740392 13.70922852 62.44970703 C13.72088188 64.60016387 13.74153693 66.75058895 13.77075195 68.90087891 C13.81340503 72.05911259 13.82957535 75.21651437 13.83984375 78.375 C13.85735184 79.32718414 13.87485992 80.27936829 13.89289856 81.26040649 C13.87382341 87.14349857 13.18241746 92.28999416 9.4140625 97.0234375 C6.12563203 99.02880594 3.69150293 99.268406 -0.1484375 99.2109375 C-1.09847656 99.20449219 -2.04851562 99.19804687 -3.02734375 99.19140625 C-5.5859375 99.0234375 -5.5859375 99.0234375 -8.5859375 98.0234375 C-11.20468892 94.53176895 -13.13416305 91.13679843 -14.5859375 87.0234375 C-15.3696875 88.0753125 -16.1534375 89.1271875 -16.9609375 90.2109375 C-21.39213838 95.4123233 -27.84733954 98.81835976 -34.5859375 100.0234375 C-47.63091227 100.82148302 -58.22368196 99.51740533 -68.5859375 91.0234375 C-74.91623755 85.2060669 -78.86106459 78.67296247 -79.96484375 70.0703125 C-80.27800352 62.19080848 -78.98113596 55.29454711 -73.99609375 49.0234375 C-60.39224615 35.6784369 -38.65541853 36.67865851 -21.01171875 36.07421875 C-20.01567627 36.03981689 -19.01963379 36.00541504 -17.9934082 35.9699707 C-15.5859375 36.0234375 -15.5859375 36.0234375 -13.5859375 37.0234375 C-13.81591624 34.64497317 -14.06915241 32.27282484 -14.3359375 29.8984375 C-14.42875 28.90070313 -14.42875 28.90070313 -14.5234375 27.8828125 C-15.0995866 22.98554516 -16.47204961 19.83121201 -19.5859375 16.0234375 C-31.21291276 11.00787954 -44.75959517 15.06540857 -55.98022461 19.42919922 C-57.35350744 19.97978612 -58.72070786 20.54587047 -60.08032227 21.12939453 C-64.33801487 22.87683726 -67.14503322 23.30060267 -71.5859375 22.0234375 C-75.0267499 19.69856426 -75.53589484 18.23028048 -76.5234375 14.1484375 C-76.81826405 9.9665557 -76.11420774 7.47107874 -73.5859375 4.0234375 C-54.91477271 -11.29763792 -19.85310479 -13.55961336 0 0 Z M-49.80859375 56.94140625 C-53.02312561 60.70700072 -52.91021875 64.24028901 -52.5859375 69.0234375 C-50.84177376 73.70514018 -48.71557911 76.23592941 -44.5859375 79.0234375 C-38.60441656 81.01727781 -32.59610809 80.75473533 -26.7734375 78.3359375 C-21.14540807 75.5169598 -17.45584167 71.61975062 -14.5859375 66.0234375 C-13.53227743 62.73343769 -13.48246465 59.71515696 -13.5234375 56.2734375 C-13.53246094 55.28859375 -13.54148437 54.30375 -13.55078125 53.2890625 C-13.56238281 52.54140625 -13.57398438 51.79375 -13.5859375 51.0234375 C-32.80599765 50.1956114 -32.80599765 50.1956114 -49.80859375 56.94140625 Z " fill="#3D3D3D" transform="translate(480.5859375,85.9765625)"/>
<path d="M0 0 C4.56537105 3.28484014 5.27606898 6.85068199 6.1640625 12.08984375 C6.7209375 11.55875 7.2778125 11.02765625 7.8515625 10.48046875 C18.6160365 0.516057 28.18732406 -2.37215334 42.8046875 -2.08984375 C52.31511597 -1.58114641 60.67182895 1.12563069 67.24609375 8.390625 C74.13800529 17.72009684 76.24003057 27.25017852 76.34106445 38.75610352 C76.36031731 40.67828453 76.36031731 40.67828453 76.37995911 42.63929749 C76.3881245 44.01994434 76.39556862 45.40059562 76.40234375 46.78125 C76.40641928 47.48445814 76.4104948 48.18766628 76.41469383 48.91218376 C76.43544977 52.6278948 76.44980152 56.34356995 76.45922852 60.05932617 C76.4703277 63.88477684 76.50479694 67.70965146 76.54440022 71.5348978 C76.57057861 74.49038244 76.57892091 77.44572913 76.58250999 80.4013195 C76.58736545 81.81148143 76.5989498 83.22163762 76.61754799 84.63168526 C76.64198204 86.60530608 76.63855044 88.57921162 76.6340332 90.55297852 C76.63989944 91.67325943 76.64576569 92.79354034 76.65180969 93.94776917 C76.04379157 97.86463088 74.62439031 100.01417014 72.1640625 103.08984375 C67.44797889 105.95648281 63.65494961 106.57963622 58.3125 105.72265625 C54.52159794 104.60606328 52.81612549 103.06532906 50.1640625 100.08984375 C47.75470279 93.91688041 47.936718 88.01227081 48.0390625 81.453125 C48.04663574 80.33729538 48.05420898 79.22146576 48.06201172 78.07182312 C48.09451139 73.3234925 48.15060265 68.57551394 48.20507812 63.82739258 C48.24154414 60.34848668 48.2655509 56.8696389 48.2890625 53.390625 C48.30565918 52.33708328 48.32225586 51.28354156 48.33935547 50.19807434 C48.39667479 41.36928288 47.96135617 32.20422184 44.1640625 24.08984375 C38.46985439 20.42302402 30.681287 20.25406136 24.1640625 21.08984375 C17.76458347 22.84326138 13.82394147 25.6000253 10.1640625 31.08984375 C6.53981895 37.6067665 6.73919901 43.68838455 6.7578125 51.03125 C6.74697632 52.27228989 6.73614014 53.51332977 6.72497559 54.79197693 C6.68499168 59.41558808 6.6709645 64.03910198 6.65875244 68.6628418 C6.64535329 73.20252793 6.60998006 77.74172943 6.5703125 82.28125 C6.57333374 83.47512833 6.57635498 84.66900665 6.57946777 85.89906311 C6.51465519 93.0663734 6.06290791 97.93521786 1.0390625 103.40234375 C-3.36367123 105.98655703 -7.84353847 106.7919066 -12.8671875 105.61328125 C-16.55656971 104.19068048 -18.90078936 102.53010712 -20.8359375 99.08984375 C-22.09991838 95.2979011 -21.99967514 91.73394967 -22.01293945 87.78222656 C-22.01951065 86.93471832 -22.02608185 86.08721008 -22.03285217 85.21401978 C-22.05257547 82.40700186 -22.06424598 79.60003744 -22.07421875 76.79296875 C-22.08033204 75.35390293 -22.08033204 75.35390293 -22.08656883 73.88576508 C-22.10742601 68.80730912 -22.12172894 63.72888015 -22.13110352 58.65039062 C-22.14216373 53.41028618 -22.17656025 48.17060687 -22.21627522 42.93065262 C-22.24244637 38.89682232 -22.25079583 34.86309322 -22.25438499 30.82918549 C-22.2592501 28.89792766 -22.27086191 26.96667433 -22.28942299 25.03549957 C-22.31382375 22.32833879 -22.31284771 19.62227662 -22.3059082 16.91503906 C-22.31871826 16.12205414 -22.33152832 15.32906921 -22.34472656 14.51205444 C-22.29280233 8.93564081 -21.06691426 5.66628264 -17.8359375 1.08984375 C-12.11857523 -2.49752081 -6.09393753 -3.02103711 0 0 Z " fill="#3C3C3C" transform="translate(531.8359375,79.91015625)"/>
<path d="M0 0 C4.94754234 2.84458286 7.84443678 7.09581034 9.625 12.4375 C10.61198184 18.9077143 9.11950671 23.04161037 6.12890625 28.74609375 C5.77112091 29.44421173 5.41333557 30.14232971 5.04470825 30.86160278 C3.91458974 33.05880103 2.77147702 35.24879896 1.625 37.4375 C1.27128326 38.1165036 0.91756653 38.7955072 0.5531311 39.49508667 C-1.94109461 44.2800983 -4.46657724 49.04815273 -7 53.8125 C-7.78846175 55.29815039 -8.57687236 56.78382793 -9.36523438 58.26953125 C-15.81000436 70.4066061 -22.28613391 82.5264862 -28.84375 94.60302734 C-30.3271414 97.34890971 -31.79038243 100.1047054 -33.25 102.86328125 C-34.12452321 104.49244353 -34.99949196 106.12136676 -35.875 107.75 C-36.24818359 108.46736328 -36.62136719 109.18472656 -37.00585938 109.92382812 C-40.08725853 115.59426642 -44.13595424 120.12956031 -50.375 122.4375 C-57.12724983 123.42507396 -62.80193876 122.42378686 -68.375 118.4375 C-72.26212882 114.34578545 -74.66474604 110.36917241 -75 104.6875 C-74.84692236 99.44561289 -73.25512464 95.56049448 -70.83984375 91 C-70.48120743 90.30384583 -70.12257111 89.60769165 -69.75306702 88.89044189 C-68.63789819 86.73359774 -67.50807938 84.58497996 -66.375 82.4375 C-65.70488849 81.15602363 -65.03495957 79.87445175 -64.36523438 78.59277344 C-62.36578054 74.78129609 -60.34067991 70.98374765 -58.3125 67.1875 C-57.57401119 65.80198782 -56.83565121 64.41640697 -56.09741211 63.03076172 C-54.22274926 59.51357262 -52.34533329 55.99786109 -50.46716309 52.48254395 C-49.40850798 50.50024274 -48.35098725 48.5173415 -47.29394531 46.53417969 C-43.55291374 39.51610907 -39.7988618 32.50532828 -36.02490234 25.50488281 C-34.47298238 22.61966197 -32.93328602 19.72819284 -31.39453125 16.8359375 C-30.51384194 15.20268198 -29.63239366 13.56983535 -28.75 11.9375 C-28.37238525 11.21965332 -27.99477051 10.50180664 -27.60571289 9.76220703 C-21.83492857 -0.80042413 -11.30287926 -5.00678872 0 0 Z " fill="#199CF3" transform="translate(98.375,78.5625)"/>
<path d="M0 0 C1.03245944 -0.00260775 2.06491888 -0.00521549 3.12866497 -0.00790226 C4.2767907 -0.00567154 5.42491644 -0.00344082 6.60783386 -0.0011425 C8.4211544 -0.00348249 8.4211544 -0.00348249 10.27110767 -0.00586975 C13.64180306 -0.00918309 17.01244322 -0.00797052 20.38313532 -0.00488353 C24.01234795 -0.00263133 27.64155556 -0.00610813 31.27076721 -0.00886345 C38.38640287 -0.01332209 45.50202802 -0.01234427 52.6176641 -0.00945081 C58.39804912 -0.00719714 64.17843119 -0.00688409 69.95881653 -0.00797462 C70.77989924 -0.00812786 71.60098196 -0.00828109 72.44694597 -0.00843897 C74.1146907 -0.00875868 75.78243544 -0.00908289 77.45018017 -0.00941156 C93.10756827 -0.01226662 108.76495052 -0.00897891 124.42233765 -0.00361119 C137.8721121 0.00085687 151.32187793 0.00008095 164.77165222 -0.00452995 C180.37104656 -0.00987525 195.97043577 -0.01199193 211.56983089 -0.00891769 C213.23161761 -0.00859912 214.89340432 -0.00828475 216.55519104 -0.00797462 C217.37293198 -0.00782035 218.19067292 -0.00766607 219.03319389 -0.00750712 C224.81007911 -0.00664183 230.5869611 -0.0081051 236.36384583 -0.01045418 C243.39899264 -0.01325188 250.43412828 -0.01251455 257.46927381 -0.00717343 C261.06223366 -0.00453601 264.65517487 -0.00353204 268.24813461 -0.00682259 C272.13415831 -0.01032784 276.02015112 -0.00615719 279.90617371 -0.0011425 C281.05429944 -0.00337322 282.20242517 -0.00560395 283.3853426 -0.00790226 C284.93403176 -0.00399064 284.93403176 -0.00399064 286.51400757 0 C287.41226352 0.00016235 288.31051947 0.0003247 289.23599529 0.00049198 C291.25700378 0.12584114 291.25700378 0.12584114 292.25700378 1.12584114 C292.2976421 2.79201229 292.29972479 4.45972209 292.25700378 6.12584114 C289.77883956 7.36492325 288.1607664 7.24381826 285.38816643 7.2332716 C284.35309924 7.23177925 283.31803205 7.2302869 282.25159919 7.22874933 C281.10570418 7.22194555 279.95980917 7.21514176 278.77919006 7.20813179 C277.56874972 7.20490266 276.35830937 7.20167354 275.11118901 7.19834656 C271.74080775 7.18833612 268.37050014 7.17378664 265.00014758 7.15736377 C261.36962256 7.14076404 257.73907988 7.12995581 254.10853577 7.11845589 C247.81485852 7.09772219 241.52120423 7.0732924 235.22755051 7.04637527 C226.12790531 7.0074626 217.02824649 6.97408834 207.9285747 6.94208001 C193.16612733 6.89000169 178.40370076 6.83342388 163.64128113 6.7740345 C149.29819041 6.71634168 134.95509408 6.66075676 120.61198425 6.60801888 C119.72835901 6.60476916 118.84473376 6.60151944 117.934332 6.59817124 C113.5015883 6.58188193 109.06884445 6.56563419 104.63610053 6.54940712 C67.84304256 6.41466395 31.05001559 6.27262616 -5.74299622 6.12584114 C-5.78571722 4.45972209 -5.78363454 2.79201229 -5.74299622 1.12584114 C-4.10666327 -0.51049181 -2.25782075 0.00040808 0 0 Z " fill="#8BCDF0" transform="translate(51.74299621582031,240.87415885925293)"/>
<path d="M0 0 C4.01361676 3.90799527 6.86609289 8.75532761 7.1015625 14.4609375 C6.66777025 21.33964312 4.69075552 25.51622568 -0.4375 30.25 C-6.1592253 34.15751972 -11.18123205 34.68294389 -18 34 C-24.43831536 31.99462308 -28.12964051 28.83778681 -31.8125 23.25 C-33.91064914 17.5076971 -33.90563177 12.36186124 -31.375 6.75 C-28.62448366 1.88817182 -25.24856511 -0.97348114 -20.125 -3.3125 C-12.40351805 -5.01122603 -6.74609494 -4.07965425 0 0 Z " fill="#EE47DA" transform="translate(133,140)"/>
<path d="M0 0 C97.35 0 194.7 0 295 0 C295 0.99 295 1.98 295 3 C197.65 3 100.3 3 0 3 C0 2.01 0 1.02 0 0 Z " fill="#1795E6" transform="translate(48,243)"/>
<path d="M0 0 C1.98 0 3.96 0 6 0 C10.29 7.59 14.58 15.18 19 23 C18.9604134 15.80477218 18.9604134 15.80477218 18.90991211 8.60961914 C18.90741455 7.71879639 18.90491699 6.82797363 18.90234375 5.91015625 C18.89448853 4.53549194 18.89448853 4.53549194 18.88647461 3.13305664 C19 1 19 1 20 0 C21.65 0 23.3 0 25 0 C25 11.22 25 22.44 25 34 C19 34 19 34 17.44848633 32.51879883 C17.08005615 31.83841553 16.71162598 31.15803223 16.33203125 30.45703125 C15.91373047 29.71259766 15.49542969 28.96816406 15.06445312 28.20117188 C14.65130859 27.41291016 14.23816406 26.62464844 13.8125 25.8125 C13.17538086 24.65911133 13.17538086 24.65911133 12.52539062 23.48242188 C11.70448722 21.99509299 10.89177391 20.50320639 10.08837891 19.00634766 C8.79715076 16.62606212 7.41884827 14.30620614 6 12 C6.00523682 12.55985596 6.01047363 13.11971191 6.01586914 13.6965332 C6.03666691 16.23517737 6.04966904 18.77380359 6.0625 21.3125 C6.07087891 22.19357422 6.07925781 23.07464844 6.08789062 23.98242188 C6.09111328 24.82998047 6.09433594 25.67753906 6.09765625 26.55078125 C6.10289307 27.33106689 6.10812988 28.11135254 6.11352539 28.9152832 C6 31 6 31 5 34 C3.35 34 1.7 34 0 34 C0 22.78 0 11.56 0 0 Z " fill="#7AC6EE" transform="translate(549,227)"/>
<path d="M0 0 C17 0 17 0 22 3 C24.12822731 5.61191533 24.11561921 7.7576561 23.875 11 C23.4091057 14.00866682 22.99920311 15.00102825 21.0625 17.5 C19 19 19 19 17 19 C17.5053125 19.83144531 18.010625 20.66289062 18.53125 21.51953125 C19.50578125 23.14955078 19.50578125 23.14955078 20.5 24.8125 C21.1496875 25.89144531 21.799375 26.97039062 22.46875 28.08203125 C24 31 24 31 24 34 C21.22265625 34.3671875 21.22265625 34.3671875 18 34 C16.05859375 31.4453125 16.05859375 31.4453125 14.4375 28.125 C11.77027722 22.61634184 11.77027722 22.61634184 6 20 C6 24.62 6 29.24 6 34 C4.02 34 2.04 34 0 34 C0 22.78 0 11.56 0 0 Z M6 5 C6 8.63 6 12.26 6 16 C8.413125 15.8453125 8.413125 15.8453125 10.875 15.6875 C11.77992188 15.62949219 12.68484375 15.57148438 13.6171875 15.51171875 C16.36221601 15.2117961 16.36221601 15.2117961 18 12 C18.41679297 9.45769153 18.41679297 9.45769153 18 7 C13.7975546 4.19836974 10.99895065 4.85510288 6 5 Z " fill="#1F98EB" transform="translate(685,227)"/>
<path d="M0 0 C14 0 14 0 20 3 C25.10390105 8.65567413 25.28903821 12.31581638 25.21484375 19.79296875 C24.85901481 25.10452431 23.33340179 27.79668619 19.4375 31.3125 C12.38966408 36.19177102 12.61309822 34 0 34 C0 22.78 0 11.56 0 0 Z M5 5 C5 12.92 5 20.84 5 29 C13.42454145 29.88811465 13.42454145 29.88811465 17.0625 26.75 C20.25456072 22.105995 19.83259518 16.35561222 19 11 C17.19196596 7.92634214 16.13960536 6.56980268 13 5 C10.36 5 7.72 5 5 5 Z " fill="#82C9F2" transform="translate(618,227)"/>
<path d="M0 0 C1.66611905 -0.042721 3.33382885 -0.04063832 5 0 C6.73557433 1.73557433 6.21164975 4.13098108 6.28125 6.49609375 C6.31863281 7.61177734 6.35601562 8.72746094 6.39453125 9.87695312 C6.42933594 11.05193359 6.46414063 12.22691406 6.5 13.4375 C6.56869107 15.74882736 6.64140371 18.06003983 6.71875 20.37109375 C6.74904297 21.40161865 6.77933594 22.43214355 6.81054688 23.49389648 C6.84076615 25.9969638 6.84076615 25.9969638 8 28 C11.55692677 28.85056945 13.49270578 29.16909807 17 28 C19.24909278 22.39582492 19.21394355 17.15804712 19.0625 11.1875 C19.02813785 9.49357337 18.9979809 7.79955459 18.97265625 6.10546875 C18.94570679 4.99401489 18.94570679 4.99401489 18.91821289 3.86010742 C19 2 19 2 20 0 C21.65 0 23.3 0 25 0 C25.08725659 4.2290362 25.1404789 8.45784012 25.1875 12.6875 C25.21263672 13.88568359 25.23777344 15.08386719 25.26367188 16.31835938 C25.27333984 17.47529297 25.28300781 18.63222656 25.29296875 19.82421875 C25.3086792 20.88729248 25.32438965 21.95036621 25.34057617 23.0456543 C24.81157701 27.63448501 22.52507625 31.06243646 19 34 C14.28428001 35.57190666 10.45181501 35.50255135 5.75 33.875 C2.18011347 31.44098645 1.47868693 30.10411067 0 26 C-0.36146565 21.53496765 -0.28205899 17.10079203 -0.1875 12.625 C-0.17396484 11.41199219 -0.16042969 10.19898438 -0.14648438 8.94921875 C-0.11124582 5.96568794 -0.06197525 2.98307542 0 0 Z " fill="#56B1ED" transform="translate(480,227)"/>
<path d="M0 0 C1.4540625 0.0309375 1.4540625 0.0309375 2.9375 0.0625 C13.9375 29.60182584 13.9375 29.60182584 13.9375 34.0625 C11.9575 34.0625 9.9775 34.0625 7.9375 34.0625 C6.9475 31.0925 5.9575 28.1225 4.9375 25.0625 C1.3075 24.7325 -2.3225 24.4025 -6.0625 24.0625 C-6.371875 25.526875 -6.68125 26.99125 -7 28.5 C-7.9375 32.9375 -7.9375 32.9375 -9.0625 34.0625 C-10.72867115 34.10313832 -12.39638095 34.105221 -14.0625 34.0625 C-13.43974649 29.72808664 -12.41865162 25.75635661 -11.03125 21.60546875 C-10.43376953 19.81399414 -10.43376953 19.81399414 -9.82421875 17.98632812 C-9.40785156 16.75333984 -8.99148438 15.52035156 -8.5625 14.25 C-8.14613281 12.99767578 -7.72976563 11.74535156 -7.30078125 10.45507812 C-3.82110378 0.07798171 -3.82110378 0.07798171 0 0 Z M-1.0625 8.0625 C-2.5475 13.5075 -2.5475 13.5075 -4.0625 19.0625 C-1.7525 19.0625 0.5575 19.0625 2.9375 19.0625 C2.65640887 17.41482753 2.36231474 15.76936855 2.0625 14.125 C1.81886719 12.75021484 1.81886719 12.75021484 1.5703125 11.34765625 C1.36148437 10.59355469 1.15265625 9.83945313 0.9375 9.0625 C0.2775 8.7325 -0.3825 8.4025 -1.0625 8.0625 Z " fill="#52B0EA" transform="translate(427.0625,226.9375)"/>
<path d="M0 0 C2.375 1.0625 2.375 1.0625 4.25 3.8125 C5.42458369 7.20574178 5.46164802 8.70376977 4.375 12.0625 C5.57125 12.5575 6.7675 13.0525 8 13.5625 C12.82683535 15.95015165 15.72359216 19.42253629 18.375 24.0625 C18.375 24.7225 18.375 25.3825 18.375 26.0625 C13.425 26.0625 8.475 26.0625 3.375 26.0625 C0 19.3125 0 19.3125 1.375 15.0625 C0.488125 15.02125 -0.39875 14.98 -1.3125 14.9375 C-5.84129527 13.74121446 -6.92143492 11.79978113 -9.625 8.0625 C-8.67708357 4.87405382 -7.92734667 3.30764595 -5.3125 1.1875 C-2.625 0.0625 -2.625 0.0625 0 0 Z " fill="#F2F3F3" transform="translate(828.625,263.9375)"/>
<path d="M0 0 C1.98 0 3.96 0 6 0 C7.98 4.29 9.96 8.58 12 13 C14.31954564 9.90727248 15.71720383 7.69759103 17.1875 4.25 C17.53167969 3.45078125 17.87585938 2.6515625 18.23046875 1.828125 C18.61138672 0.92320312 18.61138672 0.92320312 19 0 C20.98 0 22.96 0 25 0 C23.40789765 5.30700785 21.55917804 9.897832 18.875 14.75 C15.57262088 21.09318366 15.02282572 26.92402682 15 34 C13.515 34.495 13.515 34.495 12 35 C11.01 34.34 10.02 33.68 9 33 C9.0234375 30.8125 9.0234375 30.8125 9.375 28 C9.6954546 19.20886224 5.05025049 12.2189975 0.82617188 4.80249023 C0 3 0 3 0 0 Z " fill="#7AC2EE" transform="translate(746,227)"/>
<path d="M0 0 C1.65 0 3.3 0 5 0 C6 1 6 1 6.11352539 3.68383789 C6.10828857 4.85164795 6.10305176 6.01945801 6.09765625 7.22265625 C6.09443359 8.48271484 6.09121094 9.74277344 6.08789062 11.04101562 C6.07953403 12.38151109 6.07106907 13.72200588 6.0625 15.0625 C6.0574866 16.40689942 6.05292342 17.7513006 6.04882812 19.09570312 C6.03699497 22.39715433 6.01905886 25.6985826 6 29 C10.62 29 15.24 29 20 29 C20 30.65 20 32.3 20 34 C13.4 34 6.8 34 0 34 C0 22.78 0 11.56 0 0 Z " fill="#79C2E9" transform="translate(356,227)"/>
<path d="M0 0 C17 0 17 0 22 3 C24.14202387 5.62884748 24.11408927 7.79893143 23.875 11.0625 C23.41888023 14.08640515 23.21415983 14.79232987 20.9375 17 C20.298125 17.33 19.65875 17.66 19 18 C19 17.34 19 16.68 19 16 C15.04 16 11.08 16 7 16 C7 15.67 7 15.34 7 15 C11.455 14.505 11.455 14.505 16 14 C16.33 11.69 16.66 9.38 17 7 C14.70370006 5.85185003 12.92301914 5.69230191 10.375 5.4375 C8.93125 5.293125 7.4875 5.14875 6 5 C6 8.63 6 12.26 6 16 C5.67 16 5.34 16 5 16 C5 12.04 5 8.08 5 4 C8.3 3.67 11.6 3.34 15 3 C11.66666667 -0.33333333 5.70015992 1.36155076 1 1 C1 11.56 1 22.12 1 33 C2.32 33 3.64 33 5 33 C5 28.38 5 23.76 5 19 C6.98 19 8.96 19 11 19 C11 19.99 11 20.98 11 22 C8.525 21.01 8.525 21.01 6 20 C6 24.62 6 29.24 6 34 C4.02 34 2.04 34 0 34 C0 22.78 0 11.56 0 0 Z " fill="#A2DBF7" transform="translate(685,227)"/>
<path d="M0 0 C1.98 0 3.96 0 6 0 C7.20536243 3.07664626 8.38608194 6.16218268 9.5625 9.25 C9.90474609 10.12269531 10.24699219 10.99539062 10.59960938 11.89453125 C10.91865234 12.73886719 11.23769531 13.58320313 11.56640625 14.453125 C11.86490479 15.22817383 12.16340332 16.00322266 12.47094727 16.80175781 C13.06249838 19.25968408 12.81266156 20.63503708 12 23 C11.01 20.69 10.02 18.38 9 16 C8.67 17.32 8.34 18.64 8 20 C4.7 20 1.4 20 -2 20 C-1.67 16.37 -1.34 12.74 -1 9 C-1.99 10.32 -2.98 11.64 -4 13 C-3.71517632 11.58194169 -3.42181856 10.16559621 -3.125 8.75 C-2.96257812 7.96109375 -2.80015625 7.1721875 -2.6328125 6.359375 C-2.00849925 4.03168856 -1.15161458 2.10968048 0 0 Z M2 8 C0.515 13.445 0.515 13.445 -1 19 C1.31 19 3.62 19 6 19 C5.71890887 17.35232753 5.42481474 15.70686855 5.125 14.0625 C4.88136719 12.68771484 4.88136719 12.68771484 4.6328125 11.28515625 C4.42398437 10.53105469 4.21515625 9.77695313 4 9 C3.34 8.67 2.68 8.34 2 8 Z " fill="#95D5F4" transform="translate(424,227)"/>
<path d="M0 0 C3.63 0 7.26 0 11 0 C11.33 0.99 11.66 1.98 12 3 C9.03 3 6.06 3 3 3 C3 11.58 3 20.16 3 29 C6.63 28.67 10.26 28.34 14 28 C14 29.32 14 30.64 14 32 C9.38 32 4.76 32 0 32 C0 21.44 0 10.88 0 0 Z " fill="#1E95E7" transform="translate(619,228)"/>
<path d="M0 0 C1.00023193 0.00523682 2.00046387 0.01047363 3.03100586 0.01586914 C4.1105957 0.0190918 5.19018555 0.02231445 6.30249023 0.02563477 C8.00695312 0.03820312 8.00695312 0.03820312 9.74584961 0.05102539 C11.45611328 0.05779297 11.45611328 0.05779297 13.20092773 0.06469727 C16.02845312 0.07652792 18.85587601 0.09301129 21.68334961 0.11352539 C21.68334961 2.09352539 21.68334961 4.07352539 21.68334961 6.11352539 C5.06872316 7.59272902 5.06872316 7.59272902 -2.31665039 7.11352539 C-3.31665039 6.11352539 -3.31665039 6.11352539 -3.44165039 3.61352539 C-3.27909633 0.36244414 -3.240405 0.15879316 0 0 Z " fill="#65B9EC" transform="translate(786.316650390625,240.886474609375)"/>
<path d="M0 0 C1.98 0 3.96 0 6 0 C5.54554036 1.41791408 5.08625056 2.83428046 4.625 4.25 C4.36976563 5.03890625 4.11453125 5.8278125 3.8515625 6.640625 C2.43439664 10.56708453 0.92775991 13.07224009 -2 16 C-4.2002207 19.48775725 -4.38087674 22.68127898 -4.625 26.75 C-4.73714844 28.50570312 -4.73714844 28.50570312 -4.8515625 30.296875 C-4.90054688 31.18890625 -4.94953125 32.0809375 -5 33 C-5.99 33 -6.98 33 -8 33 C-8.33 27.39 -8.66 21.78 -9 16 C-7.68 16.33 -6.36 16.66 -5 17 C-4.89042969 16.35933594 -4.78085937 15.71867188 -4.66796875 15.05859375 C-3.67539672 9.6438309 -2.37541347 4.96677361 0 0 Z " fill="#2192DC" transform="translate(765,227)"/>
<path d="M0 0 C1.65 0 3.3 0 5 0 C5 27 5 27 4 29 C3.34 28.67 2.68 28.34 2 28 C2 27.34 2 26.68 2 26 C1.34 26 0.68 26 0 26 C0 17.42 0 8.84 0 0 Z " fill="#46A9E6" transform="translate(480,227)"/>
<path d="M0 0 C2.475 0.495 2.475 0.495 5 1 C5.33 2.98 5.66 4.96 6 7 C5.34 7 4.68 7 4 7 C3.67 15.25 3.34 23.5 3 32 C2.01 32 1.02 32 0 32 C0 21.44 0 10.88 0 0 Z " fill="#1F94E2" transform="translate(550,228)"/>
<path d="M0 0 C1.32 0.33 2.64 0.66 4 1 C4.66219981 6.29759847 4.49122566 10.00679543 1.3125 14.4375 C-1.13852486 17.36592162 -3.18549582 19.1024696 -7 20 C-7.8125 17.875 -7.8125 17.875 -8 15 C-6.81841287 13.55583795 -5.62550974 12.11753404 -4.34765625 10.7578125 C-1.92364135 7.59605394 -1.03848217 3.79932499 0 0 Z " fill="#F4F5F5" transform="translate(547,108)"/>
<path d="M0 0 C5.91187843 5.91187843 5.39275494 15.71655689 5.4168396 23.52485657 C5.41147156 24.98141782 5.40531902 26.43797636 5.3984375 27.89453125 C5.40046266 29.41525919 5.40337777 30.93598617 5.40713501 32.45671082 C5.41153089 35.62447469 5.40521197 38.79198288 5.39111328 41.9597168 C5.3739492 46.01268802 5.38392497 50.06506628 5.40183067 54.11801624 C5.41268052 57.25020303 5.40921798 60.38224949 5.4014473 63.51444054 C5.39945239 65.0091223 5.40187954 66.50381698 5.40888596 67.99848366 C5.4165288 70.0850258 5.40486156 72.17060916 5.38818359 74.25708008 C5.38579681 75.44159256 5.38341003 76.62610504 5.38095093 77.84651184 C4.96535906 81.28675558 3.98882357 83.19875576 2 86 C1.34 85.67 0.68 85.34 0 85 C0 83.68 0 82.36 0 81 C1.485 80.01 1.485 80.01 3 79 C3.45368462 76.29145236 3.45368462 76.29145236 3.37231445 73.07250977 C3.38165764 71.20400108 3.38165764 71.20400108 3.39118958 69.29774475 C3.38249321 67.92896126 3.37317432 66.56018161 3.36328125 65.19140625 C3.36276232 63.78572083 3.3632813 62.38003468 3.36479187 60.97434998 C3.364702 58.01933023 3.35425454 55.06458242 3.33618164 52.10961914 C3.31368098 48.35079839 3.31291464 44.59238157 3.31969929 40.83351231 C3.32307112 37.92411312 3.31634631 35.0148032 3.30657005 32.10542107 C3.30275865 30.72176521 3.3015527 29.33809934 3.3031559 27.95443916 C3.36449241 15.83314105 3.36449241 15.83314105 1 4 C0.34 3.67 -0.32 3.34 -1 3 C-0.67 2.01 -0.34 1.02 0 0 Z " fill="#A0A2A1" transform="translate(711,97)"/>
<path d="M0 0 C0.99 0 1.98 0 3 0 C3 10.56 3 21.12 3 32 C1.68 32 0.36 32 -1 32 C-1.33 30.02 -1.66 28.04 -2 26 C-1.67 26 -1.34 26 -1 26 C-0.67 17.42 -0.34 8.84 0 0 Z " fill="#2993DC" transform="translate(570,228)"/>
<path d="M0 0 C0.33 0 0.66 0 1 0 C0.88490339 1.41750563 0.75746342 2.83401169 0.625 4.25 C0.55539062 5.03890625 0.48578125 5.8278125 0.4140625 6.640625 C-0.01507113 9.085877 -0.78600638 10.84836903 -2 13 C-2.66 13 -3.32 13 -4 13 C-4 13.99 -4 14.98 -4 16 C-3.34 16 -2.68 16 -2 16 C-2.30798326 17.48011371 -2.621518 18.95907325 -2.9375 20.4375 C-3.11152344 21.26121094 -3.28554688 22.08492188 -3.46484375 22.93359375 C-4 25 -4 25 -5 26 C-6.66617115 26.04063832 -8.33388095 26.042721 -10 26 C-9.34065816 21.13451192 -8.03428754 16.74092364 -6.4375 12.125 C-6.20353516 11.43664062 -5.96957031 10.74828125 -5.72851562 10.0390625 C-5.15647501 8.35796355 -4.57881544 6.67877837 -4 5 C-3.34 5 -2.68 5 -2 5 C-1.34 3.35 -0.68 1.7 0 0 Z " fill="#69BAED" transform="translate(423,235)"/>
<path d="M0 0 C1.98 0 3.96 0 6 0 C10 6.75 10 6.75 10 9 C9.01 9 8.02 9 7 9 C6.06207279 11.81378163 5.89328306 13.44262771 5.9375 16.34375 C5.94523438 17.17777344 5.95296875 18.01179688 5.9609375 18.87109375 C5.97382812 19.73863281 5.98671875 20.60617188 6 21.5 C6.02553769 23.21868654 6.04656057 24.93744765 6.0625 26.65625 C6.07410156 27.41744141 6.08570313 28.17863281 6.09765625 28.96289062 C6 31 6 31 5 34 C3.35 34 1.7 34 0 34 C0 22.78 0 11.56 0 0 Z M1 1 C1 11.56 1 22.12 1 33 C1.99 33 2.98 33 4 33 C4.33 24.75 4.66 16.5 5 8 C5.66 8 6.32 8 7 8 C6.67 6.02 6.34 4.04 6 2 C4.35 1.67 2.7 1.34 1 1 Z " fill="#A2D7FA" transform="translate(549,227)"/>
<path d="M0 0 C1 3 1 3 -0.15234375 5.70458984 C-0.74144531 6.77918457 -1.33054687 7.8537793 -1.9375 8.9609375 C-2.25525391 9.54735016 -2.57300781 10.13376282 -2.90039062 10.73794556 C-3.92420371 12.62226431 -4.96174032 14.49860965 -6 16.375 C-6.66890052 17.59975199 -7.3368789 18.82500808 -8.00390625 20.05078125 C-9.3310691 22.48675312 -10.66343396 24.91976151 -12 27.35058594 C-15.03681512 32.8804923 -18.01711001 38.44087181 -21 44 C-21.33 44 -21.66 44 -22 44 C-22 42.35 -22 40.7 -22 39 C-21.34 39 -20.68 39 -20 39 C-20 37.35 -20 35.7 -20 34 C-19.01 34 -18.02 34 -17 34 C-16.9175 32.989375 -16.835 31.97875 -16.75 30.9375 C-16.15993932 26.62213084 -14.31083998 23.65261803 -12 20 C-11.34 20 -10.68 20 -10 20 C-10 18.35 -10 16.7 -10 15 C-9.01 15 -8.02 15 -7 15 C-7.33 13.68 -7.66 12.36 -8 11 C-7.01 11 -6.02 11 -5 11 C-5 9.02 -5 7.04 -5 5 C-4.01 4.67 -3.02 4.34 -2 4 C-0.79117904 1.99983534 -0.79117904 1.99983534 0 0 Z " fill="#69BDED" transform="translate(105,102)"/>
<path d="M0 0 C0 0.33 0 0.66 0 1 C-2.97 1 -5.94 1 -9 1 C-9.33 1.99 -9.66 2.98 -10 4 C-11.65438613 4.69658363 -13.32254318 5.36096883 -15 6 C-16.01868662 6.98095748 -17.02351983 7.97702078 -18 9 C-18.66 9 -19.32 9 -20 9 C-20.25081682 11.20597924 -20.47473851 13.41502579 -20.6875 15.625 C-20.81511719 16.85476562 -20.94273438 18.08453125 -21.07421875 19.3515625 C-20.99225442 23.38075626 -20.04889787 25.57639173 -18 29 C-18.66 29.99 -19.32 30.98 -20 32 C-23.18676133 25.98214267 -25.06228356 20.8530244 -24 14 C-21.88750516 8.21843519 -18.37108263 4.59910224 -13.3125 1.1875 C-8.81871862 -0.42347823 -4.72306765 -0.2520214 0 0 Z " fill="#6CBDED" transform="translate(125,19)"/>
<path d="M0 0 C0.33 0 0.66 0 1 0 C1.02505615 0.74685059 1.0501123 1.49370117 1.07592773 2.26318359 C1.19168213 5.63397267 1.31450128 9.00446783 1.4375 12.375 C1.47681641 13.550625 1.51613281 14.72625 1.55664062 15.9375 C1.59853516 17.05898437 1.64042969 18.18046875 1.68359375 19.3359375 C1.72025146 20.37282715 1.75690918 21.4097168 1.79467773 22.47802734 C1.84164223 24.99425166 1.84164223 24.99425166 3 27 C5.12576782 27.46651207 5.12576782 27.46651207 7.5625 27.625 C8.38878906 27.69976562 9.21507812 27.77453125 10.06640625 27.8515625 C10.70449219 27.90054688 11.34257812 27.94953125 12 28 C10 30 10 30 6.875 30.125 C5.451875 30.063125 5.451875 30.063125 4 30 C4.33 30.66 4.66 31.32 5 32 C7.97 32 10.94 32 14 32 C10.25816125 34.49455917 8.43756964 34.37606522 4 34 C0.01933905 32.42275698 -1.60667274 31.58999089 -4 28 C-3.505 26.515 -3.505 26.515 -3 25 C-3 25.66 -3 26.32 -3 27 C-0.53479064 24.53479064 -0.80544677 21.86212671 -0.68359375 18.5546875 C-0.64169922 17.47832031 -0.59980469 16.40195313 -0.55664062 15.29296875 C-0.49766602 13.60107422 -0.49766602 13.60107422 -0.4375 11.875 C-0.39431641 10.73933594 -0.35113281 9.60367188 -0.30664062 8.43359375 C-0.2003396 5.62252232 -0.09830595 2.81136055 0 0 Z " fill="#8ED1F2" transform="translate(485,228)"/>
<path d="M0 0 C1.65 0.33 3.3 0.66 5 1 C4.01 1.495 4.01 1.495 3 2 C3.5053125 2.83144531 4.010625 3.66289062 4.53125 4.51953125 C5.1809375 5.60621094 5.830625 6.69289062 6.5 7.8125 C7.1496875 8.89144531 7.799375 9.97039062 8.46875 11.08203125 C10 14 10 14 10 17 C8.02 17 6.04 17 4 17 C2.10954777 14.08819607 0.346766 11.20530307 -1 8 C-0.25 5.125 -0.25 5.125 1 3 C0.67 2.01 0.34 1.02 0 0 Z " fill="#5CB5EC" transform="translate(699,244)"/>
<path d="M0 0 C3.30956386 3.86362031 5.67878183 7.82612614 8 12.3125 C8.34740234 12.97531982 8.69480469 13.63813965 9.05273438 14.32104492 C10.04078106 16.21117081 11.02106183 18.10514542 12 20 C12.4640625 20.886875 12.928125 21.77375 13.40625 22.6875 C16 27.72678571 16 27.72678571 16 30 C14.35 29.67 12.7 29.34 11 29 C10.57682292 27.01432292 10.15364583 25.02864583 9.73046875 23.04296875 C9.13901306 20.92807691 9.13901306 20.92807691 7.5234375 19.52734375 C5.60952314 17.60852192 5.17544426 15.96413015 4.4375 13.375 C3.79864318 11.01593777 3.79864318 11.01593777 3 9 C2.34 8.67 1.68 8.34 1 8 C0.40644386 5.35139573 0.25790731 2.70802678 0 0 Z " fill="#68B8E9" transform="translate(175,102)"/>
<path d="M0 0 C4.29 0 8.58 0 13 0 C13.66 0.66 14.32 1.32 15 2 C13.34346314 3.65653686 11.39349204 3.17106165 9.125 3.1875 C8.24070312 3.20167969 7.35640625 3.21585938 6.4453125 3.23046875 C4 3 4 3 1 1 C1 10.57 1 20.14 1 30 C1.66 30 2.32 30 3 30 C3 26.04 3 22.08 3 18 C3.33 18 3.66 18 4 18 C4 22.62 4 27.24 4 32 C2.68 32 1.36 32 0 32 C0 21.44 0 10.88 0 0 Z " fill="#369BDE" transform="translate(686,228)"/>
<path d="M0 0 C3.63 0 7.26 0 11 0 C11 0.33 11 0.66 11 1 C7.7 1 4.4 1 1 1 C1 10.9 1 20.8 1 31 C1.99 30.34 2.98 29.68 4 29 C6.48046875 28.5859375 6.48046875 28.5859375 9.1875 28.375 C10.08855469 28.30023438 10.98960937 28.22546875 11.91796875 28.1484375 C12.60503906 28.09945313 13.29210937 28.05046875 14 28 C14 29.32 14 30.64 14 32 C9.38 32 4.76 32 0 32 C0 21.44 0 10.88 0 0 Z " fill="#2891D8" transform="translate(619,228)"/>
<path d="M0 0 C0.66 0 1.32 0 2 0 C2.33 9.24 2.66 18.48 3 28 C6.96 28.33 10.92 28.66 15 29 C15 29.33 15 29.66 15 30 C10.05 30 5.1 30 0 30 C0 20.1 0 10.2 0 0 Z " fill="#1B95E8" transform="translate(358,229)"/>
<path d="M0 0 C3.93944126 4.47454101 6.56475532 9.44108678 9.3125 14.6875 C10.01342773 15.9878418 10.01342773 15.9878418 10.72851562 17.31445312 C11.16486328 18.14267578 11.60121094 18.97089844 12.05078125 19.82421875 C12.44950439 20.57791748 12.84822754 21.33161621 13.2590332 22.1081543 C13.50355225 22.73246338 13.74807129 23.35677246 14 24 C13.67 24.66 13.34 25.32 13 26 C9.57960999 23.71973999 9.87593753 23.6132423 9 20 C7.60411246 18.35405861 7.60411246 18.35405861 6 17 C4 15 4 15 3.875 12.375 C3.91625 11.59125 3.9575 10.8075 4 10 C3.34 10 2.68 10 2 10 C0.68373308 6.38026598 0 3.90432869 0 0 Z " fill="#64B8EC" transform="translate(145,46)"/>
<path d="M0 0 C0.66 0.33 1.32 0.66 2 1 C2.95067299 4.28414305 3.10102197 5.69693408 2 9 C4.475 9.99 4.475 9.99 7 11 C3.25 13 3.25 13 1 13 C0.91995518 16.5219721 0.95994298 19.61981469 2 23 C-0.89448082 20.60890715 -1.62813667 18.71863329 -2 15 C-1.67 14.01 -1.34 13.02 -1 12 C-1.969375 11.87625 -2.93875 11.7525 -3.9375 11.625 C-4.948125 11.41875 -5.95875 11.2125 -7 11 C-7.33 10.34 -7.66 9.68 -8 9 C-5.03 8.34 -2.06 7.68 1 7 C0.67 4.69 0.34 2.38 0 0 Z " fill="#FBFDFC" transform="translate(831,267)"/>
<path d="M0 0 C0.47530864 6.17901235 0.47530864 6.17901235 -1.375 9.375 C-5.34230164 11.83094863 -9.41069011 11.8248355 -14 12 C-14.33 11.01 -14.66 10.02 -15 9 C-9.555 8.01 -9.555 8.01 -4 7 C-4 5.02 -4 3.04 -4 1 C-1 0 -1 0 0 0 Z " fill="#2495E0" transform="translate(504,249)"/>
<path d="M0 0 C0 3 0 3 -1.42578125 4.5703125 C-2.04839844 5.08335937 -2.67101562 5.59640625 -3.3125 6.125 C-3.92738281 6.64320313 -4.54226562 7.16140625 -5.17578125 7.6953125 C-8.38266554 9.98888713 -11.18182106 10.13636363 -15 10.125 C-16.299375 10.12886719 -16.299375 10.12886719 -17.625 10.1328125 C-20 10 -20 10 -23 9 C-23.33 8.01 -23.66 7.02 -24 6 C-23.175 6.144375 -22.35 6.28875 -21.5 6.4375 C-17.67313722 7.05253152 -13.84783293 7.53560637 -10 8 C-9.67 7.01 -9.34 6.02 -9 5 C-7.35 5 -5.7 5 -4 5 C-4 4.34 -4 3.68 -4 3 C-3.34 3 -2.68 3 -2 3 C-2 2.34 -2 1.68 -2 1 C-1.34 0.67 -0.68 0.34 0 0 Z " fill="#6DBAEA" transform="translate(212,191)"/>
<path d="M0 0 C1.5 1.375 1.5 1.375 3 3 C3 3.66 3 4.32 3 5 C4.32 4.67 5.64 4.34 7 4 C7.33 5.32 7.66 6.64 8 8 C9.32 8 10.64 8 12 8 C12 8.99 12 9.98 12 11 C14.97 11 17.94 11 21 11 C21 11.33 21 11.66 21 12 C14.06419681 12.51165761 8.77445379 12.11512799 3 8 C0.4375 5.4375 0.4375 5.4375 -1 3 C-0.67 2.01 -0.34 1.02 0 0 Z " fill="#6ABDED" transform="translate(27,189)"/>
<path d="M0 0 C0.66 0 1.32 0 2 0 C2 0.99 2 1.98 2 3 C2.66 3 3.32 3 4 3 C4 4.32 4 5.64 4 7 C4.66 7 5.32 7 6 7 C6 8.32 6 9.64 6 11 C6.99 11.33 7.98 11.66 9 12 C9 12.66 9 13.32 9 14 C9.66 14 10.32 14 11 14 C11 15.32 11 16.64 11 18 C11.66 18 12.32 18 13 18 C13 20.31 13 22.62 13 25 C9.67558447 20.74807918 7.30718199 16.14372163 4.8125 11.375 C4.34908203 10.50359375 3.88566406 9.6321875 3.40820312 8.734375 C2.75174805 7.48527344 2.75174805 7.48527344 2.08203125 6.2109375 C1.68218018 5.45087402 1.2823291 4.69081055 0.87036133 3.90771484 C0 2 0 2 0 0 Z " fill="#76C2ED" transform="translate(158,148)"/>
<path d="M0 0 C1.98 0 3.96 0 6 0 C3.10933941 9.59453303 3.10933941 9.59453303 0 13 C0.33 10.36 0.66 7.72 1 5 C0.5978125 6.2065625 0.5978125 6.2065625 0.1875 7.4375 C-0.4003125 8.7059375 -0.4003125 8.7059375 -1 10 C-1.99 10.33 -2.98 10.66 -4 11 C-3.52269162 9.5410574 -3.04308958 8.08286504 -2.5625 6.625 C-2.29566406 5.81289062 -2.02882813 5.00078125 -1.75390625 4.1640625 C-1 2 -1 2 0 0 Z " fill="#85C7EE" transform="translate(765,227)"/>
<path d="M0 0 C3.73481429 3.73481429 5.66056797 6.87854979 6.5 12.125 C6 15 6 15 3.5 17.375 C2.675 17.91125 1.85 18.4475 1 19 C0.06934867 16.39417629 -0.14917407 15.35801776 0.9375 12.75 C1.288125 12.1725 1.63875 11.595 2 11 C2.33 11.33 2.66 11.66 3 12 C3.33 11.01 3.66 10.02 4 9 C3.01 9 2.02 9 1 9 C0.67 6.03 0.34 3.06 0 0 Z " fill="#1798EF" transform="translate(161,76)"/>
<path d="M0 0 C1.65 0 3.3 0 5 0 C6.67110042 2.96178773 7.32682752 5.37071192 7.625 8.75 C7.69976562 9.54921875 7.77453125 10.3484375 7.8515625 11.171875 C7.92503906 12.07679688 7.92503906 12.07679688 8 13 C3.125 8.375 3.125 8.375 2 5 C1.34 4.67 0.68 4.34 0 4 C0 2.68 0 1.36 0 0 Z " fill="#2797E1" transform="translate(425,228)"/>
<path d="M0 0 C1.59373901 2.39060851 2.65297076 4.30828179 3.6875 6.9375 C3.95949219 7.60652344 4.23148437 8.27554688 4.51171875 8.96484375 C5.0787676 11.32830338 4.76024003 12.7192799 4 15 C3.01 12.69 2.02 10.38 1 8 C0.01 9.485 0.01 9.485 -1 11 C-4.125 4.375 -4.125 4.375 -3 1 C-2.01 1.99 -1.02 2.98 0 4 C0 2.68 0 1.36 0 0 Z " fill="#7AC2EF" transform="translate(432,235)"/>
<path d="M0 0 C3.78214542 4.2023838 9 11.09443215 9 17 C7 17 7 17 5.0625 15.5625 C1.37134079 10.97651432 0 5.83136461 0 0 Z " fill="#50B0EB" transform="translate(136,29)"/>
<path d="M0 0 C0.33 0 0.66 0 1 0 C1 1.98 1 3.96 1 6 C0.34 6 -0.32 6 -1 6 C-0.67 7.32 -0.34 8.64 0 10 C-0.99 10 -1.98 10 -3 10 C-3.66 11.65 -4.32 13.3 -5 15 C-5.66 15 -6.32 15 -7 15 C-5.45454854 9.52067211 -2.84456788 4.88570819 0 0 Z " fill="#66B9ED" transform="translate(60,109)"/>
<path d="M0 0 C2.31309705 0.11341637 4.62550185 0.24103807 6.9375 0.375 C8.86916016 0.47941406 8.86916016 0.47941406 10.83984375 0.5859375 C12.40412109 0.79089844 12.40412109 0.79089844 14 1 C14.33 1.66 14.66 2.32 15 3 C13.73542969 3.07347656 13.73542969 3.07347656 12.4453125 3.1484375 C11.34960938 3.22320312 10.25390625 3.29796875 9.125 3.375 C7.48917969 3.47941406 7.48917969 3.47941406 5.8203125 3.5859375 C2.86953526 3.73253491 2.86953526 3.73253491 1 6 C0.34 5.67 -0.32 5.34 -1 5 C-0.67 3.35 -0.34 1.7 0 0 Z " fill="#1D93E0" transform="translate(418,247)"/>
<path d="M0 0 C0.99 0.66 1.98 1.32 3 2 C3.66 1.34 4.32 0.68 5 0 C4.67 1.98 4.34 3.96 4 6 C3.01 6 2.02 6 1 6 C1 8.64 1 11.28 1 14 C-0.73662334 10.77484237 -1.8905928 7.48670834 -3 4 C-2.01 3.67 -1.02 3.34 0 3 C0 2.01 0 1.02 0 0 Z " fill="#7AC5F1" transform="translate(756,238)"/>
<path d="M0 0 C0.66 0 1.32 0 2 0 C2 0.66 2 1.32 2 2 C2.66 2 3.32 2 4 2 C5.76462683 5.08809695 6 6.23312136 6 10 C6.99 10.33 7.98 10.66 9 11 C9 12.32 9 13.64 9 15 C9.66 15.33 10.32 15.66 11 16 C10.34 16.66 9.68 17.32 9 18 C7.49667622 15.18926431 5.99790265 12.37612794 4.5 9.5625 C4.07074219 8.76005859 3.64148438 7.95761719 3.19921875 7.13085938 C2.79316406 6.36708984 2.38710937 5.60332031 1.96875 4.81640625 C1.59169922 4.10943604 1.21464844 3.40246582 0.82617188 2.67407227 C0 1 0 1 0 0 Z " fill="#6BBDED" transform="translate(116,70)"/>
<path d="M0 0 C0.54527344 0.13277344 1.09054688 0.26554688 1.65234375 0.40234375 C7.09902987 1.67789247 12.43120352 2.46963843 18 3 C18 3.66 18 4.32 18 5 C11.52716457 5.35164297 6.73439187 5.17221678 1 2 C0.67 1.34 0.34 0.68 0 0 Z " fill="#E992E2" transform="translate(107,169)"/>
<path d="M0 0 C3 3 3 3 3.14453125 5.6640625 C3.03496094 6.64117187 2.92539062 7.61828125 2.8125 8.625 C2.71582031 9.60726562 2.61914062 10.58953125 2.51953125 11.6015625 C2.34808594 12.39304688 2.17664063 13.18453125 2 14 C1.01 14.495 1.01 14.495 0 15 C0 10.05 0 5.1 0 0 Z " fill="#1896EE" transform="translate(639,236)"/>
<path d="M0 0 C0.99 0.33 1.98 0.66 3 1 C1.60667426 4.36720387 0.0210714 5.9859524 -3 8 C-3.66 7.67 -4.32 7.34 -5 7 C-4.6189482 4.23737447 -4.16402868 3.15856106 -2.125 1.1875 C-1.42375 0.795625 -0.7225 0.40375 0 0 Z " fill="#4EABE9" transform="translate(638,252)"/>
<path d="M0 0 C0.66 0 1.32 0 2 0 C2 2.97 2 5.94 2 9 C2.99 9.33 3.98 9.66 5 10 C4.01 10.66 3.02 11.32 2 12 C2 11.34 2 10.68 2 10 C-1.96 10 -5.92 10 -10 10 C-10 9.67 -10 9.34 -10 9 C-5.545 8.505 -5.545 8.505 -1 8 C-0.30903529 4.01600042 -0.30903529 4.01600042 0 0 Z " fill="#88CAF2" transform="translate(702,233)"/>
<path d="M0 0 C0.99 0.33 1.98 0.66 3 1 C3 5.62 3 10.24 3 15 C0.22957891 12.22957891 0.60203894 10.23466195 0.375 6.375 C0.30023437 5.18648437 0.22546875 3.99796875 0.1484375 2.7734375 C0.09945312 1.85820312 0.05046875 0.94296875 0 0 Z " fill="#1898EA" transform="translate(756,243)"/>
<path d="M0 0 C0.33 0 0.66 0 1 0 C0.85892253 1.45880109 0.71197585 2.91703551 0.5625 4.375 C0.48128906 5.18710938 0.40007812 5.99921875 0.31640625 6.8359375 C0 9 0 9 -1 11 C-1.99 11 -2.98 11 -4 11 C-2.25 3.375 -2.25 3.375 0 0 Z " fill="#2495E0" transform="translate(423,235)"/>
<path d="M0 0 C0 3 0 3 -1.42578125 4.60546875 C-2.35970703 5.38857422 -2.35970703 5.38857422 -3.3125 6.1875 C-3.92738281 6.71730469 -4.54226562 7.24710938 -5.17578125 7.79296875 C-7 9 -7 9 -10 9 C-9.67 7.68 -9.34 6.36 -9 5 C-7.35 5 -5.7 5 -4 5 C-4 4.34 -4 3.68 -4 3 C-3.34 3 -2.68 3 -2 3 C-2 2.34 -2 1.68 -2 1 C-1.34 0.67 -0.68 0.34 0 0 Z " fill="#61B5E9" transform="translate(212,191)"/>
<path d="M0 0 C0.33 0.66 0.66 1.32 1 2 C-0.21484375 4.6015625 -0.21484375 4.6015625 -1.9375 7.625 C-2.78634766 9.12933594 -2.78634766 9.12933594 -3.65234375 10.6640625 C-4.09707031 11.43492187 -4.54179688 12.20578125 -5 13 C-5.33 13 -5.66 13 -6 13 C-6 11.02 -6 9.04 -6 7 C-5.34 7 -4.68 7 -4 7 C-4 6.34 -4 5.68 -4 5 C-3.34 5 -2.68 5 -2 5 C-2.33 3.68 -2.66 2.36 -3 1 C-2.01 0.67 -1.02 0.34 0 0 Z " fill="#6ABBED" transform="translate(77,155)"/>
<path d="M0 0 C0.66 0.33 1.32 0.66 2 1 C1.39301257 5.12751449 -0.03810791 8.3321148 -2 12 C-2.66 11.34 -3.32 10.68 -4 10 C-3.625 7.875 -3.625 7.875 -3 6 C-2.34 6 -1.68 6 -1 6 C-0.67 4.02 -0.34 2.04 0 0 Z " fill="#2A97DF" transform="translate(765,231)"/>
<path d="M0 0 C1.95803507 -0.05389087 3.91648909 -0.09274217 5.875 -0.125 C7.51082031 -0.15980469 7.51082031 -0.15980469 9.1796875 -0.1953125 C12 0 12 0 14 2 C12.34233202 3.65766798 10.39653595 3.21049503 8.125 3.25 C7.24070312 3.27578125 6.35640625 3.3015625 5.4453125 3.328125 C2.59035628 2.94503183 1.76004103 2.21462117 0 0 Z " fill="#2895DB" transform="translate(687,228)"/>
<path d="M0 0 C1.32 0 2.64 0 4 0 C2.55049545 3.7910119 0.84827434 7.3874638 -1 11 C-1.33 11 -1.66 11 -2 11 C-2.33 8.36 -2.66 5.72 -3 3 C-1.68 3.33 -0.36 3.66 1 4 C0.67 2.68 0.34 1.36 0 0 Z " fill="#5BB7EE" transform="translate(63,176)"/>
<path d="M0 0 C0.66 0 1.32 0 2 0 C2.66 1.65 3.32 3.3 4 5 C2.35 6.65 0.7 8.3 -1 10 C-3 9 -3 9 -4 7 C-2.68 7 -1.36 7 0 7 C-0.185625 6.030625 -0.37125 5.06125 -0.5625 4.0625 C-0.706875 3.051875 -0.85125 2.04125 -1 1 C-0.67 0.67 -0.34 0.34 0 0 Z " fill="#EF70DF" transform="translate(133,161)"/>
<path d="M0 0 C1.125 1.625 1.125 1.625 2 4 C1.13120403 7.87009115 0.09639322 10.46658737 -3 13 C-3.66 11.02 -4.32 9.04 -5 7 C-4.34 6.67 -3.68 6.34 -3 6 C-2.34 6.33 -1.68 6.66 -1 7 C-0.67 4.69 -0.34 2.38 0 0 Z " fill="#58B4EE" transform="translate(81,142)"/>
<path d="M0 0 C1.890625 0.296875 1.890625 0.296875 4 1 C6.19302649 5.07276348 7.4217962 8.36024175 7 13 C3.67006966 9.17058011 1.94675475 4.62477778 0 0 Z " fill="#64B6EA" transform="translate(147,128)"/>
<path d="M0 0 C2.08940868 3.13411302 2.27364412 3.97450472 2.25 7.5625 C2.25515625 8.34753906 2.2603125 9.13257812 2.265625 9.94140625 C2 12 2 12 0 14 C-0.19456705 12.04235617 -0.38044247 10.08384679 -0.5625 8.125 C-0.66691406 7.03445312 -0.77132812 5.94390625 -0.87890625 4.8203125 C-1 2 -1 2 0 0 Z " fill="#80C7EE" transform="translate(106,88)"/>
<path d="M0 0 C2.3129482 2.3129482 2.49580975 3.47904875 3.125 6.625 C3.29257812 7.44226563 3.46015625 8.25953125 3.6328125 9.1015625 C3.81457031 10.04128906 3.81457031 10.04128906 4 11 C2.02 11 0.04 11 -2 11 C-1.67 10.01 -1.34 9.02 -1 8 C-0.34 8.33 0.32 8.66 1 9 C0.67 6.03 0.34 3.06 0 0 Z " fill="#80C5EE" transform="translate(437,250)"/>
<path d="M0 0 C0.99 0.33 1.98 0.66 3 1 C3 2.32 3 3.64 3 5 C3.66 5 4.32 5 5 5 C5 7.31 5 9.62 5 12 C1.75254486 7.86687528 0 5.36067372 0 0 Z " fill="#57B2EC" transform="translate(166,161)"/>
<path d="M0 0 C2.97246802 2.54782974 4.41535288 5.45340883 6 9 C6 9.66 6 10.32 6 11 C4.125 10.875 4.125 10.875 2 10 C0.40155515 6.40349908 0 3.96602757 0 0 Z " fill="#6EBDED" transform="translate(169,91)"/>
<path d="M0 0 C2.50037734 2.17424117 3.43628586 3.73045798 4 7 C3.01 7 2.02 7 1 7 C0.67 7.99 0.34 8.98 0 10 C-0.99 10.495 -0.99 10.495 -2 11 C-2 8.69 -2 6.38 -2 4 C-1.67 4.66 -1.34 5.32 -1 6 C-0.34 6 0.32 6 1 6 C0.67 4.02 0.34 2.04 0 0 Z " fill="#81CEF4" transform="translate(555,229)"/>
<path d="M0 0 C3.09592835 3.5087188 4.74194623 6.49197399 6 11 C1.82608696 9.60869565 1.82608696 9.60869565 0 7 C-0.1875 3.3125 -0.1875 3.3125 0 0 Z " fill="#64B8EC" transform="translate(201,151)"/>
<path d="M0 0 C0.33 0.66 0.66 1.32 1 2 C0.67 2.99 0.34 3.98 0 5 C1.65 4.01 3.3 3.02 5 2 C3.9024777 4.99324263 3.32317108 5.84610901 0.375 7.25 C-0.40875 7.4975 -1.1925 7.745 -2 8 C-2.6875 5.6875 -2.6875 5.6875 -3 3 C-1.5625 1.1875 -1.5625 1.1875 0 0 Z " fill="#FEFFFF" transform="translate(542,120)"/>
<path d="M0 0 C0.33 0 0.66 0 1 0 C1.1079859 2.43868168 1.18726589 4.87259133 1.25 7.3125 C1.28351562 8.00279297 1.31703125 8.69308594 1.3515625 9.40429688 C1.390625 11.42578125 1.390625 11.42578125 1 15 C-1.015625 16.98046875 -1.015625 16.98046875 -3 18 C-3.66 17.67 -4.32 17.34 -5 17 C-4.360625 16.4225 -3.72125 15.845 -3.0625 15.25 C-0.00974558 10.43959909 -0.17844882 5.59437046 0 0 Z " fill="#A3DAF5" transform="translate(637,238)"/>
<path d="M0 0 C2.39763185 2.39763185 2.34280586 3.33273498 2.625 6.625 C2.69976562 7.44226563 2.77453125 8.25953125 2.8515625 9.1015625 C2.90054687 9.72804688 2.94953125 10.35453125 3 11 C2.01 10.67 1.02 10.34 0 10 C-1.125 2.25 -1.125 2.25 0 0 Z " fill="#1F96E5" transform="translate(435,248)"/>
<path d="M0 0 C2.94678433 2.94678433 4.32041919 5.24093818 6 9 C6 9.66 6 10.32 6 11 C5.34 11 4.68 11 4 11 C4 10.34 4 9.68 4 9 C3.01 9 2.02 9 1 9 C0.67 6.03 0.34 3.06 0 0 Z " fill="#72C1EE" transform="translate(161,76)"/>
<path d="M0 0 C-0.33 0.99 -0.66 1.98 -1 3 C-7.625 2.25 -7.625 2.25 -11 0 C-9.54263913 -0.19491452 -8.08405407 -0.38069358 -6.625 -0.5625 C-5.81289063 -0.66691406 -5.00078125 -0.77132813 -4.1640625 -0.87890625 C-2 -1 -2 -1 0 0 Z " fill="#3099DE" transform="translate(634,257)"/>
<path d="M0 0 C0.99 0.495 0.99 0.495 2 1 C2.4140625 3.06640625 2.4140625 3.06640625 2.625 5.5625 C2.69976563 6.38878906 2.77453125 7.21507812 2.8515625 8.06640625 C2.92503906 9.02353516 2.92503906 9.02353516 3 10 C2.01 10 1.02 10 0 10 C0 6.7 0 3.4 0 0 Z " fill="#1E96E8" transform="translate(704,232)"/>
<path d="M0 0 C1.65 0 3.3 0 5 0 C5.66 1.98 6.32 3.96 7 6 C6.01 5.34 5.02 4.68 4 4 C3.01 4.495 3.01 4.495 2 5 C1.34 4.67 0.68 4.34 0 4 C0 2.68 0 1.36 0 0 Z " fill="#45ADEA" transform="translate(425,228)"/>
<path d="M0 0 C0.33 0 0.66 0 1 0 C1.08107583 1.93681161 1.13922475 3.8745934 1.1875 5.8125 C1.22230469 6.89144531 1.25710937 7.97039062 1.29296875 9.08203125 C1 12 1 12 -0.51171875 13.88671875 C-1.00285156 14.25410156 -1.49398437 14.62148437 -2 15 C-2.33 13.02 -2.66 11.04 -3 9 C-2.34 8.67 -1.68 8.34 -1 8 C-0.53476937 6.10466658 -0.53476937 6.10466658 -0.375 3.9375 C-0.25125 2.638125 -0.1275 1.33875 0 0 Z " fill="#2096E3" transform="translate(213,177)"/>
<path d="M0 0 C0.33 0.66 0.66 1.32 1 2 C-0.21484375 4.6015625 -0.21484375 4.6015625 -1.9375 7.625 C-2.78634766 9.12933594 -2.78634766 9.12933594 -3.65234375 10.6640625 C-4.09707031 11.43492187 -4.54179688 12.20578125 -5 13 C-5.33 13 -5.66 13 -6 13 C-6 11.35 -6 9.7 -6 8 C-5.34 8 -4.68 8 -4 8 C-4 6.35 -4 4.7 -4 3 C-3.01 3 -2.02 3 -1 3 C-0.67 2.01 -0.34 1.02 0 0 Z " fill="#77C5EF" transform="translate(89,133)"/>
<path d="M0 0 C0.93045933 2.55144824 1.08564091 3.74006478 0.22265625 6.359375 C-0.16019531 7.14828125 -0.54304688 7.9371875 -0.9375 8.75 C-1.50791016 9.94882813 -1.50791016 9.94882813 -2.08984375 11.171875 C-2.39019531 11.77515625 -2.69054688 12.3784375 -3 13 C-3.66 12.67 -4.32 12.34 -5 12 C-3.68938409 7.76570244 -2.05643741 3.92592596 0 0 Z " fill="#71C1ED" transform="translate(66,97)"/>
<path d="M0 0 C3.09592835 3.5087188 4.74194623 6.49197399 6 11 C4 11 4 11 2.4375 10 C0.19187539 6.87565271 0.31165434 3.80218292 0 0 Z " fill="#78C1ED" transform="translate(175,102)"/>
<path d="M0 0 C0.1875 3.375 0.1875 3.375 0 7 C-0.99 7.66 -1.98 8.32 -3 9 C-3.33 6.36 -3.66 3.72 -4 1 C-1 0 -1 0 0 0 Z " fill="#4BAEE8" transform="translate(504,249)"/>
<path d="M0 0 C2.53408774 1.26704387 2.93209972 2.43123157 4.1875 4.9375 C4.55230469 5.64777344 4.91710937 6.35804688 5.29296875 7.08984375 C5.52628906 7.72019531 5.75960937 8.35054687 6 9 C5.67 9.66 5.34 10.32 5 11 C2.65808437 8.8709858 1.16445046 6.95591271 0 4 C0 2.68 0 1.36 0 0 Z " fill="#7AC2ED" transform="translate(193,136)"/>
<path d="M0 0 C1 3 1 3 0.00390625 5.26171875 C-0.47175781 6.06222656 -0.94742188 6.86273438 -1.4375 7.6875 C-1.91058594 8.49574219 -2.38367188 9.30398437 -2.87109375 10.13671875 C-3.24363281 10.75160156 -3.61617188 11.36648437 -4 12 C-4.33 12 -4.66 12 -5 12 C-5 9.69 -5 7.38 -5 5 C-4.01 4.67 -3.02 4.34 -2 4 C-0.79117904 1.99983534 -0.79117904 1.99983534 0 0 Z " fill="#72C3F1" transform="translate(105,102)"/>
<path d="M0 0 C0 2.64 0 5.28 0 8 C-0.99 8 -1.98 8 -3 8 C-3.6875 5.6875 -3.6875 5.6875 -4 3 C-1.72413793 0 -1.72413793 0 0 0 Z " fill="#1A99ED" transform="translate(572,251)"/>
<path d="M0 0 C2.86724686 0.57344937 3.8614515 0.8614515 6 3 C5.625 5.125 5.625 5.125 5 7 C3.29115995 5.37660195 1.62553283 3.70680947 0 2 C0 1.34 0 0.68 0 0 Z " fill="#5AB3EA" transform="translate(180,190)"/>
<path d="M0 0 C3 1 3 1 4.1875 2.75 C5.10819096 5.29960574 5.14948718 7.30923081 5 10 C2.35534962 6.8745041 1.15585285 3.91211733 0 0 Z " fill="#6DBDEC" transform="translate(142,118)"/>
<path d="M0 0 C0.33 0 0.66 0 1 0 C0.125 6.75 0.125 6.75 -1 9 C-1.66 9 -2.32 9 -3 9 C-2.44271087 5.65626525 -1.64826111 2.96687001 0 0 Z " fill="#59B1E9" transform="translate(92,124)"/>
<path d="M0 0 C0.598125 0.226875 1.19625 0.45375 1.8125 0.6875 C-2.9375 4.6875 -2.9375 4.6875 -5.1875 4.6875 C-5.1875 5.3475 -5.1875 6.0075 -5.1875 6.6875 C-5.8475 6.6875 -6.5075 6.6875 -7.1875 6.6875 C-3.9375 -0.5625 -3.9375 -0.5625 0 0 Z " fill="#6F6F6F" transform="translate(545.1875,87.3125)"/>
<path d="M0 0 C1.1875 1.625 1.1875 1.625 2 4 C0.625 7.25 0.625 7.25 -1 10 C-1.33 10 -1.66 10 -2 10 C-2.25 3.375 -2.25 3.375 0 0 Z " fill="#5EB8EE" transform="translate(69,166)"/>
<path d="M0 0 C0.66 0.33 1.32 0.66 2 1 C1.67 1.99 1.34 2.98 1 4 C0.34 4 -0.32 4 -1 4 C-1 4.66 -1 5.32 -1 6 C-2.32 6.33 -3.64 6.66 -5 7 C-3.70700306 4.11562221 -2.34058637 2.12780579 0 0 Z " fill="#ED85E0" transform="translate(108,139)"/>
<path d="M0 0 C1.32 0.33 2.64 0.66 4 1 C4.33 2.32 4.66 3.64 5 5 C3.35 4.67 1.7 4.34 0 4 C0 2.68 0 1.36 0 0 Z " fill="#45AAEB" transform="translate(186,127)"/>
<path d="M0 0 C-2.97 1.32 -5.94 2.64 -9 4 C-9.66 3.34 -10.32 2.68 -11 2 C-4.5 -1.125 -4.5 -1.125 0 0 Z " fill="#8D8E8E" transform="translate(278,80)"/>
<path d="M0 0 C0.66 0 1.32 0 2 0 C2.33 1.98 2.66 3.96 3 6 C1.68 6.33 0.36 6.66 -1 7 C-0.67 4.69 -0.34 2.38 0 0 Z " fill="#2497E7" transform="translate(553,229)"/>
<path d="M0 0 C0.33 0 0.66 0 1 0 C1.36923077 5.41538462 1.36923077 5.41538462 -0.5 8.375 C-0.995 8.91125 -1.49 9.4475 -2 10 C-2.25 3.375 -2.25 3.375 0 0 Z " fill="#53B1E9" transform="translate(28,169)"/>
<path d="M0 0 C0.66 0 1.32 0 2 0 C2.99 1.98 3.98 3.96 5 6 C4.01 7.485 4.01 7.485 3 9 C0 3.375 0 3.375 0 0 Z " fill="#74C2EF" transform="translate(102,42)"/>
<path d="M0 0 C4.42857143 5.14285714 4.42857143 5.14285714 5 9 C2 8 2 8 0.8125 6.1875 C0 4 0 4 0 0 Z " fill="#80C6F1" transform="translate(136,29)"/>
<path d="M0 0 C0.33 0 0.66 0 1 0 C1 2.31 1 4.62 1 7 C0.01 7.33 -0.98 7.66 -2 8 C-2.33 6.68 -2.66 5.36 -3 4 C-2.01 4 -1.02 4 0 4 C0 2.68 0 1.36 0 0 Z " fill="#349EE3" transform="translate(500,252)"/>
<path d="M0 0 C1.32 0 2.64 0 4 0 C4.33 1.32 4.66 2.64 5 4 C3.68 4.33 2.36 4.66 1 5 C0.67 3.35 0.34 1.7 0 0 Z " fill="#2F9BE9" transform="translate(696,245)"/>
<path d="M0 0 C0.625 1.8125 0.625 1.8125 1 4 C0.01 5.485 0.01 5.485 -1 7 C-1.66 6.67 -2.32 6.34 -3 6 C-3 4.68 -3 3.36 -3 2 C-2.01 1.34 -1.02 0.68 0 0 Z " fill="#777777" transform="translate(714,176)"/>
<path d="M0 0 C0.66 0 1.32 0 2 0 C2.33 0.99 2.66 1.98 3 3 C1.68 4.32 0.36 5.64 -1 7 C-1.625 5.1875 -1.625 5.1875 -2 3 C-1.34 2.01 -0.68 1.02 0 0 Z " fill="#747574" transform="translate(652,140)"/>
<path d="M0 0 C0.66 0 1.32 0 2 0 C2 1.32 2 2.64 2 4 C2.66 4 3.32 4 4 4 C3.67 5.65 3.34 7.3 3 9 C0.23776722 6.23776722 0.42143709 3.79293383 0 0 Z " fill="#3BA5EC" transform="translate(139,109)"/>
<path d="" fill="#FFFFFF" transform="translate(0,0)"/>
<path d="" fill="#FFFFFF" transform="translate(0,0)"/>
<path d="" fill="#FFFFFF" transform="translate(0,0)"/>
<path d="" fill="#FFFFFF" transform="translate(0,0)"/>
<path d="" fill="#FFFFFF" transform="translate(0,0)"/>
<path d="" fill="#FFFFFF" transform="translate(0,0)"/>
<path d="" fill="#FFFFFF" transform="translate(0,0)"/>
<path d="" fill="#FFFFFF" transform="translate(0,0)"/>
<path d="" fill="#FFFFFF" transform="translate(0,0)"/>
<path d="" fill="#FFFFFF" transform="translate(0,0)"/>
<path d="" fill="#FFFFFF" transform="translate(0,0)"/>
<path d="" fill="#FFFFFF" transform="translate(0,0)"/>
<path d="" fill="#FFFFFF" transform="translate(0,0)"/>
<path d="" fill="#FFFFFF" transform="translate(0,0)"/>
<path d="" fill="#FFFFFF" transform="translate(0,0)"/>
<path d="" fill="#FFFFFF" transform="translate(0,0)"/>
<path d="" fill="#FFFFFF" transform="translate(0,0)"/>
<path d="" fill="#FFFFFF" transform="translate(0,0)"/>
<path d="" fill="#FFFFFF" transform="translate(0,0)"/>
<path d="" fill="#FFFFFF" transform="translate(0,0)"/>
<path d="" fill="#FFFFFF" transform="translate(0,0)"/>
<path d="" fill="#FFFFFF" transform="translate(0,0)"/>
<path d="" fill="#FFFFFF" transform="translate(0,0)"/>
<path d="" fill="#FFFFFF" transform="translate(0,0)"/>
<path d="" fill="#FFFFFF" transform="translate(0,0)"/>
<path d="" fill="#FFFFFF" transform="translate(0,0)"/>
<path d="" fill="#FFFFFF" transform="translate(0,0)"/>
<path d="" fill="#FFFFFF" transform="translate(0,0)"/>
<path d="" fill="#FFFFFF" transform="translate(0,0)"/>
<path d="" fill="#FFFFFF" transform="translate(0,0)"/>
<path d="" fill="#FFFFFF" transform="translate(0,0)"/>
<path d="" fill="#FFFFFF" transform="translate(0,0)"/>
<path d="" fill="#FFFFFF" transform="translate(0,0)"/>
<path d="" fill="#FFFFFF" transform="translate(0,0)"/>
<path d="" fill="#FFFFFF" transform="translate(0,0)"/>
<path d="" fill="#FFFFFF" transform="translate(0,0)"/>
<path d="" fill="#FFFFFF" transform="translate(0,0)"/>
<path d="" fill="#FFFFFF" transform="translate(0,0)"/>
<path d="" fill="#FFFFFF" transform="translate(0,0)"/>
<path d="" fill="#FFFFFF" transform="translate(0,0)"/>
<path d="" fill="#FFFFFF" transform="translate(0,0)"/>
<path d="" fill="#FFFFFF" transform="translate(0,0)"/>
<path d="" fill="#FFFFFF" transform="translate(0,0)"/>
<path d="" fill="#FFFFFF" transform="translate(0,0)"/>
<path d="" fill="#FFFFFF" transform="translate(0,0)"/>
<path d="" fill="#FFFFFF" transform="translate(0,0)"/>
<path d="" fill="#FFFFFF" transform="translate(0,0)"/>
<path d="" fill="#FFFFFF" transform="translate(0,0)"/>
<path d="" fill="#FFFFFF" transform="translate(0,0)"/>
<path d="" fill="#FFFFFF" transform="translate(0,0)"/>
<path d="" fill="#FFFFFF" transform="translate(0,0)"/>
<path d="" fill="#FFFFFF" transform="translate(0,0)"/>
<path d="" fill="#FFFFFF" transform="translate(0,0)"/>
<path d="" fill="#FFFFFF" transform="translate(0,0)"/>
<path d="" fill="#FFFFFF" transform="translate(0,0)"/>
<path d="" fill="#FFFFFF" transform="translate(0,0)"/>
<path d="" fill="#FFFFFF" transform="translate(0,0)"/>
<path d="" fill="#FFFFFF" transform="translate(0,0)"/>
<path d="" fill="#FFFFFF" transform="translate(0,0)"/>
<path d="" fill="#FFFFFF" transform="translate(0,0)"/>
<path d="" fill="#FFFFFF" transform="translate(0,0)"/>
<path d="" fill="#FFFFFF" transform="translate(0,0)"/>
<path d="" fill="#FFFFFF" transform="translate(0,0)"/>
<path d="" fill="#FFFFFF" transform="translate(0,0)"/>
<path d="" fill="#FFFFFF" transform="translate(0,0)"/>
<path d="" fill="#FFFFFF" transform="translate(0,0)"/>
<path d="" fill="#FFFFFF" transform="translate(0,0)"/>
<path d="" fill="#FFFFFF" transform="translate(0,0)"/>
<path d="" fill="#FFFFFF" transform="translate(0,0)"/>
</svg>
